<svg width="500" height="183" viewBox="0 0 500 183" fill="none" xmlns="http://www.w3.org/2000/svg">
<path d="M221.683 152.665H222.986V165.935H221.683V152.665ZM222.276 159.893H225.83C226.896 159.893 227.607 159.656 228.2 159.063C228.792 158.471 229.029 157.76 229.029 156.812C229.029 155.864 228.792 155.154 228.2 154.561C227.607 153.969 226.778 153.732 225.83 153.732H222.276V152.547H226.185C227.015 152.547 227.726 152.665 228.437 153.021C229.029 153.376 229.621 153.85 229.977 154.443C230.332 155.035 230.569 155.746 230.569 156.575C230.569 157.405 230.332 158.116 229.977 158.708C229.621 159.3 229.148 159.774 228.437 160.13C227.726 160.485 227.015 160.604 226.185 160.604H222.276V159.893Z" fill="white"/>
<path d="M233.413 165.58C232.702 165.224 232.228 164.632 231.873 163.802C231.517 162.973 231.28 162.144 231.28 161.196C231.28 160.129 231.517 159.3 231.873 158.589C232.228 157.878 232.702 157.286 233.413 156.93C234.124 156.575 234.835 156.338 235.664 156.338C236.494 156.338 237.323 156.575 237.915 156.93C238.626 157.286 239.1 157.878 239.456 158.589C239.811 159.3 240.048 160.248 240.048 161.196C240.048 162.262 239.811 163.091 239.456 163.802C239.1 164.513 238.626 165.106 237.915 165.58C237.204 166.054 236.494 166.172 235.664 166.172C234.835 166.172 234.124 165.935 233.413 165.58ZM237.323 164.632C237.797 164.276 238.152 163.921 238.389 163.328C238.626 162.736 238.745 162.025 238.745 161.196C238.745 160.366 238.626 159.655 238.389 159.063C238.152 158.471 237.797 157.997 237.323 157.76C236.849 157.404 236.257 157.286 235.664 157.286C235.072 157.286 234.479 157.404 234.005 157.76C233.531 158.115 233.176 158.471 232.939 159.063C232.702 159.655 232.584 160.366 232.584 161.196C232.584 162.025 232.702 162.736 232.939 163.328C233.176 163.921 233.531 164.395 234.005 164.632C234.479 164.987 235.072 165.106 235.664 165.106C236.375 165.106 236.849 164.869 237.323 164.632Z" fill="white"/>
<path d="M240.878 156.338H242.063L244.195 164.632L246.565 156.338H247.75L250.12 164.632L252.252 156.338H253.437L250.712 165.935H249.409L247.039 157.997L244.669 165.935H243.366L240.878 156.338Z" fill="white"/>
<path d="M256.398 165.58C255.687 165.224 255.213 164.632 254.858 163.921C254.502 163.21 254.384 162.262 254.384 161.314C254.384 160.366 254.502 159.418 254.858 158.708C255.213 157.997 255.687 157.404 256.398 156.93C256.99 156.575 257.82 156.338 258.649 156.338C259.479 156.338 260.189 156.575 260.9 156.93C261.493 157.286 261.967 157.878 262.322 158.589C262.678 159.3 262.796 160.129 262.796 161.077V161.551H254.976V160.603H262.204L261.611 161.433V160.959C261.611 160.129 261.493 159.537 261.256 158.945C261.019 158.352 260.663 157.997 260.189 157.76C259.716 157.523 259.242 157.286 258.649 157.286C258.057 157.286 257.583 157.404 257.109 157.76C256.635 158.115 256.28 158.471 256.043 158.945C255.806 159.418 255.687 160.129 255.687 160.959V161.433C255.687 162.262 255.806 162.854 256.043 163.447C256.28 164.039 256.635 164.395 257.109 164.75C257.583 164.987 258.175 165.224 258.768 165.224C259.242 165.224 259.597 165.106 260.071 164.987C260.545 164.869 260.782 164.632 261.019 164.395C261.256 164.158 261.493 163.802 261.493 163.447V163.328H262.678V163.447C262.559 163.802 262.441 164.276 262.204 164.632C261.967 164.987 261.73 165.224 261.374 165.58C261.019 165.817 260.663 166.054 260.189 166.172C259.716 166.29 259.242 166.409 258.768 166.409C257.82 166.172 257.109 165.935 256.398 165.58Z" fill="white"/>
<path d="M264.454 156.338H265.639V158.115C265.757 157.523 266.113 157.049 266.468 156.694C266.824 156.338 267.416 156.22 268.009 156.22C268.127 156.22 268.364 156.22 268.483 156.22C268.601 156.22 268.72 156.22 268.838 156.338V157.523C268.72 157.523 268.601 157.405 268.483 157.405C268.364 157.405 268.127 157.405 267.89 157.405C267.416 157.405 267.061 157.523 266.705 157.76C266.35 157.997 266.113 158.234 265.876 158.708C265.639 159.063 265.639 159.537 265.639 160.13V166.054H264.454V156.338Z" fill="white"/>
<path d="M271.209 165.58C270.498 165.224 270.024 164.632 269.668 163.921C269.313 163.21 269.194 162.262 269.194 161.314C269.194 160.366 269.313 159.418 269.668 158.708C270.024 157.997 270.498 157.404 271.209 156.93C271.801 156.575 272.63 156.338 273.46 156.338C274.289 156.338 275 156.575 275.711 156.93C276.303 157.286 276.777 157.878 277.133 158.589C277.488 159.3 277.607 160.129 277.607 161.077V161.551H269.787V160.603H277.014L276.422 161.433V160.959C276.422 160.129 276.303 159.537 276.066 158.945C275.829 158.352 275.474 157.997 275 157.76C274.526 157.523 274.052 157.286 273.46 157.286C272.867 157.286 272.393 157.404 271.919 157.76C271.446 158.115 271.09 158.471 270.853 158.945C270.616 159.418 270.498 160.129 270.498 160.959V161.433C270.498 162.262 270.616 162.854 270.853 163.447C271.09 164.039 271.446 164.395 271.919 164.75C272.393 164.987 272.986 165.224 273.578 165.224C274.052 165.224 274.408 165.106 274.882 164.987C275.355 164.869 275.592 164.632 275.829 164.395C276.066 164.158 276.303 163.802 276.303 163.447V163.328H277.488V163.447C277.37 163.802 277.251 164.276 277.014 164.632C276.777 164.987 276.54 165.224 276.185 165.58C275.829 165.817 275.474 166.054 275 166.172C274.526 166.29 274.052 166.409 273.578 166.409C272.63 166.172 271.801 165.935 271.209 165.58Z" fill="white"/>
<path d="M280.687 165.579C280.094 165.223 279.62 164.631 279.265 163.801C278.909 163.091 278.791 162.143 278.791 161.195C278.791 160.247 278.909 159.299 279.265 158.588C279.62 157.877 280.094 157.285 280.687 156.811C281.279 156.456 281.99 156.219 282.819 156.219C283.53 156.219 284.241 156.456 284.834 156.811C285.426 157.166 285.9 157.759 286.137 158.351V152.664H287.322V165.934H286.137V163.92C285.9 164.631 285.426 165.105 284.834 165.46C284.241 165.816 283.649 166.053 282.819 166.053C281.99 166.171 281.279 165.934 280.687 165.579ZM284.597 164.631C285.071 164.275 285.426 163.801 285.663 163.209C285.9 162.617 286.018 161.906 286.018 161.195C286.018 160.484 285.9 159.773 285.663 159.181C285.426 158.588 285.071 158.114 284.597 157.877C284.123 157.522 283.649 157.403 283.056 157.403C282.464 157.403 281.872 157.522 281.398 157.877C280.924 158.233 280.568 158.588 280.331 159.181C280.094 159.773 279.976 160.484 279.976 161.195C279.976 162.024 280.094 162.617 280.331 163.209C280.568 163.801 280.924 164.275 281.398 164.512C281.872 164.868 282.346 164.986 283.056 164.986C283.649 165.105 284.123 164.868 284.597 164.631Z" fill="white"/>
<path d="M295.972 165.58C295.38 165.224 295.024 164.632 294.669 163.921V165.935H293.484V152.665H294.669V158.352C294.906 157.641 295.38 157.167 295.972 156.812C296.564 156.457 297.275 156.22 297.986 156.22C298.816 156.22 299.527 156.457 300.119 156.812C300.711 157.167 301.185 157.76 301.541 158.589C301.896 159.3 302.015 160.248 302.015 161.196C302.015 162.144 301.896 163.092 301.541 163.802C301.185 164.513 300.711 165.106 300.119 165.58C299.527 165.935 298.816 166.172 297.986 166.172C297.275 166.172 296.564 165.935 295.972 165.58ZM299.408 164.632C299.882 164.276 300.237 163.921 300.474 163.329C300.711 162.736 300.83 162.025 300.83 161.314C300.83 160.485 300.711 159.893 300.474 159.3C300.237 158.708 299.882 158.234 299.408 157.997C298.934 157.641 298.46 157.523 297.749 157.523C297.157 157.523 296.564 157.641 296.209 157.997C295.735 158.352 295.38 158.826 295.143 159.3C294.906 159.893 294.787 160.603 294.787 161.314C294.787 162.025 294.906 162.736 295.143 163.329C295.38 163.921 295.735 164.395 296.209 164.75C296.683 165.106 297.157 165.224 297.749 165.224C298.342 165.106 298.934 164.869 299.408 164.632Z" fill="white"/>
<path d="M303.673 169.253C303.554 169.253 303.436 169.253 303.317 169.253V168.186C303.436 168.186 303.436 168.186 303.554 168.186C303.673 168.186 303.673 168.186 303.791 168.186C304.384 168.186 304.739 168.068 305.094 167.831C305.45 167.594 305.687 167.238 305.924 166.646L306.161 166.054L302.488 156.338H303.791L306.872 165.106L306.516 164.75H306.99L306.635 165.106L309.715 156.338H311.019L307.227 166.646C306.99 167.238 306.753 167.712 306.516 168.068C306.279 168.423 305.924 168.66 305.568 168.897C305.213 169.016 304.739 169.134 304.147 169.134C303.91 169.253 303.791 169.253 303.673 169.253Z" fill="white"/>
<path d="M318.483 165.342C317.535 164.75 316.824 163.921 316.35 162.973C315.876 162.025 315.639 160.722 315.639 159.3C315.639 157.878 315.876 156.693 316.35 155.627C316.824 154.56 317.535 153.85 318.483 153.257C319.431 152.665 320.497 152.428 321.682 152.428C322.63 152.428 323.459 152.546 324.17 152.902C324.881 153.257 325.473 153.731 326.066 154.323C326.658 154.916 326.895 155.627 327.014 156.456V156.575H325.71V156.456C325.592 155.864 325.236 155.39 324.881 154.916C324.525 154.442 324.051 154.086 323.578 153.85C322.985 153.613 322.393 153.494 321.682 153.494C320.734 153.494 319.905 153.731 319.194 154.205C318.483 154.679 317.89 155.39 317.535 156.219C317.179 157.049 316.942 158.115 316.942 159.181C316.942 160.366 317.179 161.314 317.535 162.143C317.89 162.973 318.483 163.684 319.194 164.158C319.905 164.632 320.734 164.868 321.682 164.868C322.393 164.868 322.985 164.75 323.459 164.513C324.051 164.276 324.407 163.921 324.762 163.447C325.118 162.973 325.355 162.499 325.592 161.788V161.669H326.895V161.788C326.777 162.617 326.421 163.328 325.947 164.039C325.473 164.75 324.881 165.105 324.17 165.461C323.459 165.816 322.63 165.935 321.682 165.935C320.497 166.172 319.431 165.935 318.483 165.342Z" fill="white"/>
<path d="M330.332 165.58C329.621 165.224 329.147 164.632 328.792 163.802C328.436 162.973 328.199 162.144 328.199 161.196C328.199 160.129 328.436 159.3 328.792 158.589C329.147 157.878 329.621 157.286 330.332 156.93C331.043 156.575 331.754 156.338 332.583 156.338C333.413 156.338 334.242 156.575 334.834 156.93C335.545 157.286 336.019 157.878 336.375 158.589C336.73 159.3 336.967 160.248 336.967 161.196C336.967 162.262 336.73 163.091 336.375 163.802C336.019 164.513 335.545 165.106 334.834 165.58C334.123 166.054 333.413 166.172 332.583 166.172C331.754 166.172 330.924 165.935 330.332 165.58ZM334.242 164.632C334.716 164.276 335.071 163.921 335.308 163.328C335.545 162.736 335.664 162.025 335.664 161.196C335.664 160.366 335.545 159.655 335.308 159.063C335.071 158.471 334.716 157.997 334.242 157.76C333.768 157.404 333.176 157.286 332.583 157.286C331.991 157.286 331.398 157.404 330.924 157.76C330.45 158.115 330.095 158.471 329.858 159.063C329.621 159.655 329.503 160.366 329.503 161.196C329.503 162.025 329.621 162.736 329.858 163.328C330.095 163.921 330.45 164.395 330.924 164.632C331.398 164.987 331.991 165.106 332.583 165.106C333.176 165.106 333.768 164.869 334.242 164.632Z" fill="white"/>
<path d="M338.625 156.338H339.81V157.997C340.047 157.523 340.403 157.049 340.995 156.694C341.469 156.338 342.18 156.22 342.891 156.22C343.957 156.22 344.787 156.575 345.379 157.168C345.971 157.76 346.327 158.708 346.327 159.774V165.935H345.142V160.011C345.142 159.063 344.905 158.471 344.55 157.997C344.076 157.523 343.483 157.286 342.654 157.286C342.062 157.286 341.588 157.405 341.232 157.642C340.758 157.878 340.521 158.234 340.284 158.708C340.047 159.182 339.929 159.656 339.929 160.248V165.935H338.744V156.338H338.625Z" fill="white"/>
<path d="M349.408 165.58C349.053 165.224 348.816 164.632 348.816 163.684V157.404H347.394V156.338H348.816V153.731H350.119V156.338H352.015V157.404H350.119V163.684C350.119 164.158 350.238 164.632 350.475 164.75C350.712 164.987 351.067 165.106 351.541 165.106C351.659 165.106 351.778 165.106 351.896 165.106C352.015 165.106 352.015 165.106 352.133 165.106V166.054C352.015 166.054 351.896 166.054 351.778 166.054C351.659 166.054 351.541 166.054 351.304 166.054C350.475 166.172 349.882 165.935 349.408 165.58Z" fill="white"/>
<path d="M353.792 156.338H354.976V158.115C355.095 157.523 355.45 157.049 355.806 156.694C356.161 156.338 356.754 156.22 357.346 156.22C357.464 156.22 357.701 156.22 357.82 156.22C357.938 156.22 358.057 156.22 358.175 156.338V157.523C358.057 157.523 357.938 157.405 357.82 157.405C357.701 157.405 357.464 157.405 357.228 157.405C356.754 157.405 356.398 157.523 356.043 157.76C355.687 157.997 355.45 158.234 355.213 158.708C354.976 159.063 354.976 159.537 354.976 160.13V166.054H353.792V156.338Z" fill="white"/>
<path d="M360.308 165.816C359.834 165.579 359.478 165.224 359.241 164.868C359.004 164.394 358.886 163.921 358.886 163.328C358.886 162.499 359.241 161.906 359.834 161.432C360.426 160.958 361.255 160.721 362.322 160.603L365.876 160.366V161.314L362.44 161.551C361.729 161.551 361.137 161.788 360.663 162.143C360.189 162.499 360.071 162.854 360.071 163.447C360.071 163.921 360.308 164.394 360.663 164.75C361.018 165.105 361.611 165.224 362.203 165.224C362.796 165.224 363.27 165.105 363.744 164.868C364.218 164.631 364.573 164.276 364.81 163.921C365.047 163.565 365.165 163.091 365.165 162.499V159.655C365.165 158.944 364.928 158.47 364.573 157.996C364.099 157.641 363.625 157.404 362.796 157.404C362.085 157.404 361.492 157.522 361.137 157.878C360.663 158.233 360.426 158.589 360.308 159.181V159.3H359.123V159.181C359.241 158.589 359.36 158.115 359.715 157.759C360.071 157.285 360.426 157.048 361.018 156.812C361.611 156.575 362.203 156.456 362.914 156.456C363.625 156.456 364.336 156.575 364.81 156.812C365.284 157.048 365.758 157.404 365.995 157.878C366.232 158.352 366.469 158.944 366.469 159.537V166.053H365.284V164.276C365.165 164.631 364.81 164.987 364.573 165.342C364.336 165.698 363.862 165.816 363.388 166.053C362.914 166.172 362.559 166.29 362.085 166.29C361.374 166.172 360.781 166.053 360.308 165.816Z" fill="white"/>
<path d="M369.906 165.58C369.314 165.224 368.84 164.632 368.485 163.802C368.129 163.092 368.011 162.144 368.011 161.196C368.011 160.248 368.129 159.3 368.485 158.589C368.84 157.878 369.314 157.286 369.906 156.812C370.499 156.457 371.21 156.22 372.039 156.22C372.75 156.22 373.461 156.457 374.053 156.812C374.646 157.167 375.12 157.76 375.357 158.352V152.665H376.542V165.935H375.357V163.921C375.12 164.632 374.646 165.106 374.053 165.461C373.461 165.817 372.869 166.054 372.039 166.054C371.21 166.172 370.499 165.935 369.906 165.58ZM373.935 164.632C374.409 164.276 374.764 163.802 375.001 163.21C375.238 162.618 375.357 161.907 375.357 161.196C375.357 160.485 375.238 159.774 375.001 159.182C374.764 158.589 374.409 158.115 373.935 157.878C373.461 157.523 372.987 157.404 372.395 157.404C371.802 157.404 371.21 157.523 370.736 157.878C370.262 158.234 369.906 158.589 369.67 159.182C369.433 159.774 369.314 160.485 369.314 161.196C369.314 162.025 369.433 162.618 369.67 163.21C369.906 163.802 370.262 164.276 370.736 164.513C371.21 164.869 371.684 164.987 372.395 164.987C372.869 165.106 373.461 164.869 373.935 164.632Z" fill="white"/>
<path d="M380.332 165.58C379.621 165.224 379.147 164.632 378.791 163.921C378.436 163.21 378.317 162.262 378.317 161.314C378.317 160.366 378.436 159.418 378.791 158.708C379.147 157.997 379.621 157.404 380.332 156.93C380.924 156.575 381.753 156.338 382.583 156.338C383.412 156.338 384.123 156.575 384.834 156.93C385.426 157.286 385.9 157.878 386.256 158.589C386.611 159.3 386.73 160.129 386.73 161.077V161.551H378.91V160.603H386.137L385.545 161.433V160.959C385.545 160.129 385.426 159.537 385.189 158.945C384.952 158.352 384.597 157.997 384.123 157.76C383.649 157.523 383.175 157.286 382.583 157.286C381.99 157.286 381.516 157.404 381.043 157.76C380.569 158.115 380.213 158.471 379.976 158.945C379.739 159.418 379.621 160.129 379.621 160.959V161.433C379.621 162.262 379.739 162.854 379.976 163.447C380.213 164.039 380.569 164.395 381.043 164.75C381.516 164.987 382.109 165.224 382.701 165.224C383.175 165.224 383.531 165.106 384.005 164.987C384.479 164.869 384.715 164.632 384.952 164.395C385.189 164.158 385.426 163.802 385.426 163.447V163.328H386.611V163.447C386.493 163.802 386.374 164.276 386.137 164.632C385.9 164.987 385.663 165.224 385.308 165.58C384.952 165.817 384.597 166.054 384.123 166.172C383.649 166.29 383.175 166.409 382.701 166.409C381.753 166.172 380.924 165.935 380.332 165.58Z" fill="white"/>
<path d="M388.389 156.338H389.574V158.115C389.692 157.523 390.048 157.049 390.403 156.694C390.759 156.338 391.351 156.22 391.944 156.22C392.062 156.22 392.299 156.22 392.418 156.22C392.536 156.22 392.655 156.22 392.773 156.338V157.523C392.655 157.523 392.536 157.405 392.418 157.405C392.299 157.405 392.062 157.405 391.825 157.405C391.351 157.405 390.996 157.523 390.64 157.76C390.285 157.997 390.048 158.234 389.811 158.708C389.574 159.063 389.574 159.537 389.574 160.13V166.054H388.389V156.338Z" fill="white"/>
<path d="M232.583 58.9425C229.384 57.1652 227.014 54.5586 225.237 51.241C223.578 47.9235 222.63 43.8951 222.63 39.3927C222.63 34.7718 223.46 30.8619 225.237 27.4259C226.896 24.1083 229.384 21.5017 232.464 19.606C235.545 17.8287 239.218 16.8809 243.365 16.8809C247.63 16.8809 251.185 17.8287 254.265 19.606C257.346 21.3832 259.716 23.8714 261.374 27.1889C263.033 30.388 263.863 34.1794 263.863 38.5633V42.2363H228.318V34.7718H258.294L252.725 41.7624V37.26C252.725 34.7718 252.37 32.6391 251.54 30.9804C250.711 29.3216 249.645 28.0183 248.341 27.1889C246.919 26.3595 245.379 25.8856 243.483 25.8856C241.706 25.8856 240.047 26.3595 238.626 27.1889C237.204 28.0183 236.137 29.3216 235.308 31.0989C234.479 32.7576 234.123 34.8903 234.123 37.3785V41.9993C234.123 44.369 234.479 46.3832 235.308 48.042C236.137 49.7008 237.204 51.0041 238.744 51.9519C240.166 52.8998 241.943 53.2553 243.957 53.2553C245.616 53.2553 246.919 53.0183 248.104 52.5444C249.289 52.0704 250.237 51.3595 250.948 50.6486C251.659 49.8192 252.251 49.1083 252.488 48.279L252.607 48.042H263.389L263.27 48.5159C262.915 50.0562 262.322 51.715 261.374 53.2553C260.427 54.914 259.123 56.3358 257.583 57.6391C256.043 58.9425 254.028 60.0088 251.777 60.8382C249.526 61.6676 246.801 62.023 243.72 62.023C239.455 61.6676 235.664 60.7197 232.583 58.9425Z" fill="white"/>
<path d="M277.606 59.8903C274.762 58.7055 272.63 57.1652 271.089 55.0325C269.549 53.0183 268.601 50.6486 268.246 47.9235V47.568H279.739L279.857 47.9235C280.212 49.5823 281.042 50.8856 282.345 51.8335C283.648 52.7813 285.426 53.2552 287.795 53.2552C289.336 53.2552 290.52 53.0183 291.587 52.6628C292.653 52.3074 293.483 51.8334 294.075 51.1225C294.667 50.4116 294.904 49.7007 294.904 48.7529C294.904 47.568 294.43 46.6202 293.601 46.0278C292.772 45.3169 291.35 44.7244 289.217 44.2505L281.871 42.7102C277.724 41.8808 274.525 40.3406 272.393 38.3263C270.26 36.1936 269.193 33.587 269.193 30.388C269.193 27.6628 269.904 25.2932 271.445 23.279C272.985 21.2647 274.999 19.7245 277.724 18.5396C280.449 17.4733 283.648 16.8809 287.321 16.8809C291.113 16.8809 294.312 17.4733 297.037 18.6581C299.644 19.8429 301.776 21.5017 303.198 23.6344C304.62 25.6486 305.331 28.0183 305.449 30.5064V30.8619H294.667V30.5064C294.43 28.9662 293.72 27.6628 292.535 26.715C291.231 25.6486 289.573 25.1747 287.44 25.1747C286.137 25.1747 284.952 25.4117 283.885 25.7671C282.938 26.1226 282.108 26.715 281.634 27.3074C281.042 28.0183 280.805 28.7292 280.805 29.6771C280.805 30.7434 281.279 31.6913 282.108 32.4022C282.938 33.1131 284.478 33.7055 286.611 34.1794L293.957 35.7197C298.459 36.6676 301.776 38.0894 303.672 39.9851C305.686 41.8808 306.634 44.369 306.634 47.568C306.634 50.4116 305.805 52.7813 304.265 54.914C302.724 57.0467 300.473 58.587 297.629 59.7718C294.786 60.9567 291.587 61.5491 287.795 61.5491C283.767 61.6676 280.331 61.0752 277.606 59.8903Z" fill="white"/>
<path d="M319.905 59.8903C317.061 58.7055 314.928 57.1652 313.388 55.0325C311.848 53.0183 310.9 50.6486 310.544 47.9235V47.568H322.037L322.156 47.9235C322.511 49.5823 323.341 50.8856 324.644 51.8335C325.947 52.7813 327.725 53.2552 330.094 53.2552C331.634 53.2552 332.819 53.0183 333.886 52.6628C334.952 52.3074 335.781 51.8334 336.374 51.1225C336.966 50.4116 337.203 49.7007 337.203 48.7529C337.203 47.568 336.729 46.6202 335.9 46.0278C335.07 45.3169 333.649 44.7244 331.516 44.2505L324.17 42.7102C320.023 41.8808 316.824 40.3406 314.691 38.3263C312.559 36.1936 311.492 33.587 311.492 30.388C311.492 27.6628 312.203 25.2932 313.743 23.279C315.284 21.2647 317.298 19.7245 320.023 18.5396C322.748 17.4733 325.947 16.8809 329.62 16.8809C333.412 16.8809 336.611 17.4733 339.336 18.6581C341.943 19.8429 344.075 21.5017 345.497 23.6344C346.919 25.6486 347.63 28.0183 347.748 30.5064V30.8619H336.966V30.5064C336.729 28.9662 336.018 27.6628 334.834 26.715C333.53 25.6486 331.871 25.1747 329.739 25.1747C328.435 25.1747 327.251 25.4117 326.184 25.7671C325.236 26.1226 324.407 26.715 323.933 27.3074C323.341 28.0183 323.104 28.7292 323.104 29.6771C323.104 30.7434 323.578 31.6913 324.407 32.4022C325.236 33.1131 326.777 33.7055 328.909 34.1794L336.255 35.7197C340.758 36.6676 344.075 38.0894 345.971 39.9851C347.985 41.8808 348.933 44.369 348.933 47.568C348.933 50.4116 348.104 52.7813 346.563 54.914C345.023 57.0467 342.772 58.587 339.928 59.7718C337.085 60.9567 333.886 61.5491 330.094 61.5491C326.066 61.6676 322.748 61.0752 319.905 59.8903Z" fill="white"/>
<path d="M363.033 58.9425C359.834 57.1652 357.464 54.5586 355.687 51.241C354.028 47.9235 353.081 43.8951 353.081 39.3927C353.081 34.7718 353.91 30.8619 355.687 27.4259C357.346 24.1083 359.834 21.5017 362.915 19.606C365.995 17.8287 369.668 16.8809 373.815 16.8809C378.081 16.8809 381.635 17.8287 384.716 19.606C387.796 21.3832 390.166 23.8714 391.825 27.1889C393.483 30.388 394.313 34.1794 394.313 38.5633V42.2363H358.768V34.7718H388.744L383.175 41.7624V37.26C383.175 34.7718 382.82 32.6391 381.991 30.9804C381.161 29.3216 380.095 28.0183 378.791 27.1889C377.37 26.3595 375.829 25.8856 373.934 25.8856C372.156 25.8856 370.498 26.3595 369.076 27.1889C367.654 28.0183 366.588 29.3216 365.758 31.0989C364.929 32.7576 364.573 34.8903 364.573 37.3785V41.9993C364.573 44.369 364.929 46.3832 365.758 48.042C366.588 49.7008 367.654 51.0041 369.194 51.9519C370.616 52.8998 372.393 53.2553 374.408 53.2553C376.066 53.2553 377.37 53.0183 378.555 52.5444C379.739 52.0704 380.687 51.3595 381.398 50.6486C382.109 49.8192 382.701 49.1083 382.938 48.279L383.057 48.042H393.839L393.72 48.5159C393.365 50.0562 392.773 51.715 391.825 53.2553C390.877 54.914 389.573 56.3358 388.033 57.6391C386.493 58.9425 384.479 60.0088 382.227 60.8382C379.976 61.6676 377.251 62.023 374.171 62.023C369.905 61.6676 366.114 60.7197 363.033 58.9425Z" fill="white"/>
<path d="M224.29 87.1412H236.02V94.3687H236.257C237.086 91.8806 238.627 89.9848 240.759 88.4445C242.892 87.0227 245.38 86.1934 248.342 86.1934C250.356 86.1934 252.134 86.5488 253.792 87.2597C255.451 87.9706 256.754 88.9185 257.821 90.2218C258.887 91.5251 259.717 93.1839 260.191 95.0796H260.427C261.02 93.3024 262.086 91.6436 263.39 90.3403C264.693 89.037 266.233 87.9706 268.01 87.2597C269.788 86.5488 271.683 86.1934 273.816 86.1934C276.66 86.1934 279.148 86.7858 281.162 87.9706C283.295 89.1554 284.954 90.8142 286.138 93.0654C287.323 95.3166 287.916 97.8047 287.916 100.648V130.151H276.186V103.729C276.186 101.241 275.593 99.345 274.409 97.9232C273.224 96.6199 271.446 95.909 269.195 95.909C267.773 95.909 266.47 96.2644 265.285 96.9753C264.219 97.6862 263.271 98.6341 262.679 99.8189C262.086 101.004 261.731 102.426 261.731 104.084V130.269H250.475V103.373C250.475 101.004 249.882 99.2265 248.579 97.9232C247.394 96.6199 245.617 96.0275 243.484 96.0275C242.063 96.0275 240.759 96.3829 239.574 97.0938C238.508 97.8047 237.56 98.7526 236.968 100.056C236.375 101.241 236.02 102.663 236.02 104.321V130.269H224.29V87.1412Z" fill="white"/>
<path d="M300.592 129.321C298.46 128.255 296.682 126.715 295.497 124.7C294.313 122.686 293.72 120.435 293.72 117.947V117.828C293.72 113.918 295.142 110.838 298.104 108.587C301.066 106.336 305.213 105.032 310.545 104.677L327.369 103.61V110.956L312.322 111.904C310.071 112.023 308.412 112.615 307.227 113.445C306.042 114.392 305.45 115.577 305.45 117.118V117.236C305.45 118.776 306.042 120.08 307.227 120.909C308.412 121.857 310.071 122.212 312.085 122.212C313.862 122.212 315.403 121.857 316.824 121.146C318.246 120.435 319.313 119.487 320.024 118.302C320.853 117.118 321.208 115.814 321.208 114.274V101.478C321.208 99.582 320.616 98.0417 319.431 96.9753C318.246 95.909 316.469 95.3166 314.218 95.3166C311.967 95.3166 310.308 95.7905 309.005 96.6199C307.701 97.5678 306.872 98.6341 306.635 100.056L306.516 100.411H295.734V99.9374C295.971 97.3308 296.919 94.9611 298.46 92.8284C300 90.8142 302.133 89.1554 304.858 87.9706C307.583 86.7858 310.9 86.1934 314.692 86.1934C318.365 86.1934 321.682 86.7858 324.407 87.9706C327.133 89.1554 329.265 90.8142 330.806 93.0654C332.346 95.1981 333.057 97.8047 333.057 100.648V130.151H321.09V123.753H320.853C320.024 125.174 318.957 126.478 317.772 127.544C316.469 128.61 315.047 129.44 313.507 130.032C311.848 130.625 310.189 130.862 308.294 130.862C305.332 130.98 302.725 130.388 300.592 129.321Z" fill="white"/>
<path d="M340.403 87.1412H352.133V94.6057H352.37C352.962 91.999 354.147 89.8663 355.924 88.4445C357.583 87.0227 359.716 86.1934 362.204 86.1934C362.796 86.1934 363.507 86.1934 364.1 86.3118C364.692 86.4303 365.166 86.5488 365.64 86.6673V97.0938C365.166 96.8569 364.573 96.7384 363.744 96.6199C363.033 96.5014 362.204 96.3829 361.374 96.3829C359.479 96.3829 357.82 96.7384 356.398 97.5678C354.976 98.2787 354.028 99.4635 353.318 100.885C352.607 102.307 352.251 104.084 352.251 106.217V130.388H340.521V87.1412H340.403Z" fill="white"/>
<path d="M370.734 72.2129H382.464V130.27H370.734V72.2129ZM381.042 104.44H382.701L397.275 87.1418H410.545L390.64 109.772H388.033L381.042 117.474V104.44ZM384.478 111.194L391.943 102.189L411.374 130.151H397.867L384.478 111.194Z" fill="white"/>
<path d="M420.853 128.375C417.654 126.598 415.284 123.991 413.507 120.674C411.848 117.356 410.9 113.328 410.9 108.825C410.9 104.204 411.73 100.295 413.507 96.8585C415.166 93.541 417.654 90.9343 420.735 89.0386C423.815 87.2613 427.488 86.3135 431.635 86.3135C435.9 86.3135 439.455 87.2613 442.535 89.0386C445.616 90.8158 447.986 93.304 449.644 96.6215C451.303 99.8206 452.133 103.612 452.133 107.996V111.669H416.588V104.204H446.564L440.995 111.195V106.693C440.995 104.204 440.64 102.072 439.81 100.413C438.981 98.7542 437.915 97.4509 436.611 96.6215C435.19 95.7921 433.649 95.3182 431.753 95.3182C429.976 95.3182 428.317 95.7921 426.896 96.6215C425.474 97.4509 424.408 98.7542 423.578 100.531C422.749 102.19 422.393 104.323 422.393 106.811V111.432C422.393 113.802 422.749 115.816 423.578 117.475C424.408 119.133 425.474 120.437 427.014 121.385C428.436 122.332 430.213 122.688 432.227 122.688C433.886 122.688 435.189 122.451 436.374 121.977C437.559 121.503 438.507 120.792 439.218 120.081C439.929 119.252 440.521 118.541 440.758 117.712L440.877 117.475H451.659L451.54 117.949C451.185 119.489 450.592 121.148 449.644 122.688C448.697 124.347 447.393 125.768 445.853 127.072C444.313 128.375 442.299 129.441 440.047 130.271C437.796 131.1 435.071 131.456 431.99 131.456C427.844 131.1 424.052 130.271 420.853 128.375Z" fill="white"/>
<path d="M464.81 128.138C462.559 126.124 461.374 122.806 461.374 118.185V96.0289H455.332V87.1427H461.374V76.5977H473.223V87.1427H481.042V96.0289H473.223V116.882C473.223 118.896 473.696 120.318 474.526 121.029C475.474 121.858 476.777 122.214 478.554 122.214C479.147 122.214 479.502 122.214 479.976 122.095C480.332 122.095 480.805 121.977 481.042 121.977V130.626C480.45 130.745 479.621 130.863 478.673 130.982C477.725 131.1 476.659 131.1 475.355 131.1C470.616 131.1 467.18 130.152 464.81 128.138Z" fill="white"/>
<path d="M190.995 174.347H27.251V10.6025H190.995V174.347ZM39.4548 162.143H178.791V22.8063H39.4548V162.143Z" fill="white"/>
<path d="M93.9574 126.716C89.455 124.82 85.9005 122.332 83.4124 119.014C80.9242 115.697 79.3839 111.905 78.91 107.521L78.7915 106.929H97.1564L97.2749 107.521C97.8673 110.247 99.2891 112.379 101.303 113.801C103.436 115.341 106.398 116.052 110.071 116.052C112.441 116.052 114.573 115.815 116.232 115.223C117.891 114.63 119.194 113.801 120.142 112.735C121.09 111.668 121.564 110.365 121.564 108.825V108.706C121.564 106.811 120.853 105.389 119.55 104.204C118.246 103.019 115.877 102.19 112.441 101.479L100.711 98.9906C93.9574 97.5688 88.9811 95.1992 85.5451 91.8816C82.109 88.5641 80.4503 84.2987 80.4503 79.0854V78.967C80.4503 74.5831 81.6351 70.6731 84.0048 67.4741C86.3744 64.275 89.8105 61.7869 94.1943 59.8911C98.5782 58.1139 103.673 57.166 109.597 57.166C115.758 57.166 120.972 58.1139 125.237 60.1281C129.502 62.1423 132.82 64.7489 135.071 68.0665C137.322 71.384 138.626 75.057 138.744 79.0854V79.6779H121.327L121.209 79.2039C120.853 76.7158 119.787 74.7016 117.773 73.0428C115.758 71.384 113.033 70.5546 109.479 70.5546C107.346 70.5546 105.45 70.9101 103.91 71.5025C102.37 72.0949 101.066 72.9243 100.237 73.9906C99.4076 75.057 98.9337 76.3603 98.9337 77.9006V78.0191C98.9337 79.7963 99.6446 81.2181 100.948 82.5215C102.37 83.7063 104.739 84.6542 108.294 85.4835L120.024 87.9717C127.251 89.512 132.583 91.7632 135.664 94.7252C138.863 97.6873 140.403 101.834 140.403 106.929V107.048C140.403 111.55 139.1 115.46 136.493 118.896C133.886 122.213 130.332 124.82 125.829 126.716C121.327 128.611 115.995 129.559 110.071 129.559C103.91 129.441 98.4598 128.493 93.9574 126.716Z" fill="white"/>
</svg>
