<svg width="294" height="108" viewBox="0 0 294 108" fill="none" xmlns="http://www.w3.org/2000/svg">
<path d="M130.35 89.5238H131.116V97.3266H130.35V89.5238ZM130.698 93.7735H132.788C133.415 93.7735 133.833 93.6342 134.181 93.2858C134.53 92.9375 134.669 92.5195 134.669 91.9622C134.669 91.4048 134.53 90.9868 134.181 90.6385C133.833 90.2901 133.345 90.1508 132.788 90.1508H130.698V89.4541H132.997C133.485 89.4541 133.903 89.5238 134.321 89.7328C134.669 89.9418 135.017 90.2205 135.226 90.5688C135.435 90.9171 135.575 91.3351 135.575 91.8228C135.575 92.3105 135.435 92.7285 135.226 93.0768C135.017 93.4252 134.739 93.7039 134.321 93.9129C133.903 94.1219 133.485 94.1915 132.997 94.1915H130.698V93.7735Z" fill="white"/>
<path d="M137.247 97.1177C136.829 96.9087 136.55 96.5603 136.341 96.0727C136.132 95.585 135.993 95.0973 135.993 94.54C135.993 93.913 136.132 93.4253 136.341 93.0073C136.55 92.5893 136.829 92.2409 137.247 92.0319C137.665 91.8229 138.083 91.6836 138.57 91.6836C139.058 91.6836 139.546 91.8229 139.894 92.0319C140.312 92.2409 140.591 92.5893 140.8 93.0073C141.009 93.4253 141.148 93.9826 141.148 94.54C141.148 95.167 141.009 95.6547 140.8 96.0727C140.591 96.4907 140.312 96.839 139.894 97.1177C139.476 97.3964 139.058 97.466 138.57 97.466C138.083 97.466 137.665 97.3267 137.247 97.1177ZM139.546 96.5604C139.824 96.3514 140.033 96.1423 140.173 95.794C140.312 95.4457 140.382 95.0277 140.382 94.54C140.382 94.0523 140.312 93.6343 140.173 93.286C140.033 92.9376 139.824 92.6589 139.546 92.5196C139.267 92.3106 138.919 92.2409 138.57 92.2409C138.222 92.2409 137.874 92.3106 137.595 92.5196C137.316 92.7286 137.107 92.9376 136.968 93.286C136.829 93.6343 136.759 94.0523 136.759 94.54C136.759 95.0277 136.829 95.4457 136.968 95.794C137.107 96.1423 137.316 96.421 137.595 96.5604C137.874 96.7694 138.222 96.839 138.57 96.839C138.988 96.839 139.267 96.6997 139.546 96.5604Z" fill="white"/>
<path d="M141.636 91.6836H142.333L143.587 96.5604L144.98 91.6836H145.677L147.07 96.5604L148.324 91.6836H149.021L147.419 97.3267H146.652L145.259 92.6589L143.866 97.3267H143.099L141.636 91.6836Z" fill="white"/>
<path d="M150.762 97.1177C150.344 96.9087 150.065 96.5604 149.856 96.1423C149.647 95.7243 149.578 95.167 149.578 94.6097C149.578 94.0523 149.647 93.495 149.856 93.077C150.065 92.6589 150.344 92.3106 150.762 92.0319C151.11 91.8229 151.598 91.6836 152.086 91.6836C152.573 91.6836 152.991 91.8229 153.409 92.0319C153.758 92.2409 154.036 92.5893 154.245 93.0073C154.454 93.4253 154.524 93.913 154.524 94.4703V94.749H149.926V94.1916H154.176L153.827 94.6793V94.4006C153.827 93.913 153.758 93.5646 153.618 93.2163C153.479 92.8679 153.27 92.6589 152.991 92.5196C152.713 92.3803 152.434 92.2409 152.086 92.2409C151.737 92.2409 151.459 92.3106 151.18 92.5196C150.901 92.7286 150.692 92.9376 150.553 93.2163C150.414 93.495 150.344 93.913 150.344 94.4006V94.6793C150.344 95.167 150.414 95.5153 150.553 95.8637C150.692 96.212 150.901 96.421 151.18 96.63C151.459 96.7694 151.807 96.9087 152.155 96.9087C152.434 96.9087 152.643 96.839 152.922 96.7694C153.2 96.6997 153.34 96.5603 153.479 96.421C153.618 96.2817 153.758 96.0727 153.758 95.8637V95.794H154.454V95.8637C154.385 96.0727 154.315 96.3514 154.176 96.5604C154.036 96.7694 153.897 96.9087 153.688 97.1177C153.479 97.257 153.27 97.3964 152.991 97.466C152.713 97.5357 152.434 97.6054 152.155 97.6054C151.598 97.466 151.18 97.3267 150.762 97.1177Z" fill="white"/>
<path d="M155.499 91.6839H156.196V92.729C156.265 92.3806 156.474 92.1019 156.683 91.8929C156.892 91.6839 157.241 91.6143 157.589 91.6143C157.659 91.6143 157.798 91.6143 157.868 91.6143C157.937 91.6143 158.007 91.6143 158.077 91.6839V92.3806C158.007 92.3806 157.937 92.3109 157.868 92.3109C157.798 92.3109 157.659 92.3109 157.519 92.3109C157.241 92.3109 157.032 92.3806 156.823 92.5199C156.614 92.6593 156.474 92.7986 156.335 93.0773C156.196 93.2863 156.196 93.565 156.196 93.9133V97.3967H155.499V91.6839Z" fill="white"/>
<path d="M159.47 97.1177C159.052 96.9087 158.774 96.5604 158.565 96.1423C158.356 95.7243 158.286 95.167 158.286 94.6097C158.286 94.0523 158.356 93.495 158.565 93.077C158.774 92.6589 159.052 92.3106 159.47 92.0319C159.819 91.8229 160.307 91.6836 160.794 91.6836C161.282 91.6836 161.7 91.8229 162.118 92.0319C162.466 92.2409 162.745 92.5893 162.954 93.0073C163.163 93.4253 163.233 93.913 163.233 94.4703V94.749H158.634V94.1916H162.884L162.536 94.6793V94.4006C162.536 93.913 162.466 93.5646 162.327 93.2163C162.188 92.8679 161.979 92.6589 161.7 92.5196C161.421 92.3803 161.143 92.2409 160.794 92.2409C160.446 92.2409 160.167 92.3106 159.889 92.5196C159.61 92.7286 159.401 92.9376 159.261 93.2163C159.122 93.495 159.052 93.913 159.052 94.4006V94.6793C159.052 95.167 159.122 95.5153 159.261 95.8637C159.401 96.212 159.61 96.421 159.889 96.63C160.167 96.7694 160.516 96.9087 160.864 96.9087C161.143 96.9087 161.352 96.839 161.63 96.7694C161.909 96.6997 162.048 96.5603 162.188 96.421C162.327 96.2817 162.466 96.0727 162.466 95.8637V95.794H163.163V95.8637C163.093 96.0727 163.024 96.3514 162.884 96.5604C162.745 96.7694 162.606 96.9087 162.397 97.1177C162.188 97.257 161.979 97.3964 161.7 97.466C161.421 97.5357 161.143 97.6054 160.864 97.6054C160.307 97.466 159.819 97.3267 159.47 97.1177Z" fill="white"/>
<path d="M165.044 97.1173C164.696 96.9082 164.417 96.5599 164.208 96.0722C163.999 95.6542 163.929 95.0969 163.929 94.5395C163.929 93.9822 163.999 93.4248 164.208 93.0068C164.417 92.5888 164.696 92.2405 165.044 91.9618C165.392 91.7528 165.81 91.6135 166.298 91.6135C166.716 91.6135 167.134 91.7528 167.482 91.9618C167.831 92.1708 168.109 92.5192 168.249 92.8675V89.5234H168.945V97.3263H168.249V96.1419C168.109 96.5599 167.831 96.8386 167.482 97.0476C167.134 97.2566 166.786 97.3959 166.298 97.3959C165.81 97.4656 165.392 97.3263 165.044 97.1173ZM167.343 96.5599C167.622 96.3509 167.831 96.0722 167.97 95.7239C168.109 95.3756 168.179 94.9575 168.179 94.5395C168.179 94.1215 168.109 93.7035 167.97 93.3552C167.831 93.0068 167.622 92.7282 167.343 92.5888C167.064 92.3798 166.786 92.3102 166.437 92.3102C166.089 92.3102 165.741 92.3798 165.462 92.5888C165.183 92.7978 164.974 93.0068 164.835 93.3552C164.696 93.7035 164.626 94.1215 164.626 94.5395C164.626 95.0272 164.696 95.3756 164.835 95.7239C164.974 96.0722 165.183 96.3509 165.462 96.4902C165.741 96.6992 166.019 96.7689 166.437 96.7689C166.786 96.8386 167.064 96.6993 167.343 96.5599Z" fill="white"/>
<path d="M174.031 97.1182C173.683 96.9092 173.474 96.5609 173.265 96.1429V97.3272H172.568V89.5244H173.265V92.8685C173.404 92.4505 173.683 92.1718 174.031 91.9628C174.38 91.7538 174.798 91.6145 175.216 91.6145C175.703 91.6145 176.121 91.7538 176.47 91.9628C176.818 92.1718 177.097 92.5201 177.306 93.0078C177.515 93.4258 177.584 93.9832 177.584 94.5405C177.584 95.0979 177.515 95.6552 177.306 96.0732C177.097 96.4912 176.818 96.8396 176.47 97.1182C176.121 97.3272 175.703 97.4666 175.216 97.4666C174.798 97.4666 174.38 97.3272 174.031 97.1182ZM176.052 96.5609C176.33 96.3519 176.539 96.1429 176.679 95.7945C176.818 95.4462 176.888 95.0282 176.888 94.6102C176.888 94.1225 176.818 93.7742 176.679 93.4258C176.539 93.0775 176.33 92.7988 176.052 92.6595C175.773 92.4505 175.494 92.3808 175.076 92.3808C174.728 92.3808 174.38 92.4505 174.171 92.6595C173.892 92.8685 173.683 93.1472 173.544 93.4258C173.404 93.7742 173.335 94.1922 173.335 94.6102C173.335 95.0282 173.404 95.4462 173.544 95.7945C173.683 96.1429 173.892 96.4215 174.171 96.6306C174.449 96.8396 174.728 96.9092 175.076 96.9092C175.425 96.8396 175.773 96.7002 176.052 96.5609Z" fill="white"/>
<path d="M178.559 99.2774C178.49 99.2774 178.42 99.2774 178.35 99.2774V98.6504C178.42 98.6504 178.42 98.6504 178.49 98.6504C178.559 98.6504 178.559 98.6504 178.629 98.6504C178.977 98.6504 179.186 98.5807 179.395 98.4414C179.604 98.3021 179.744 98.0931 179.883 97.7447L180.023 97.3964L177.863 91.6836H178.629L180.441 96.839L180.232 96.63H180.51L180.301 96.839L182.113 91.6836H182.879L180.65 97.7447C180.51 98.0931 180.371 98.3717 180.232 98.5807C180.092 98.7897 179.883 98.9291 179.674 99.0684C179.465 99.1381 179.186 99.2077 178.838 99.2077C178.699 99.2774 178.629 99.2774 178.559 99.2774Z" fill="white"/>
<path d="M187.268 96.9786C186.71 96.6302 186.292 96.1426 186.014 95.5852C185.735 95.0279 185.596 94.2615 185.596 93.4255C185.596 92.5895 185.735 91.8928 186.014 91.2658C186.292 90.6388 186.71 90.2208 187.268 89.8724C187.825 89.5241 188.452 89.3848 189.149 89.3848C189.706 89.3848 190.194 89.4544 190.612 89.6634C191.03 89.8724 191.378 90.1511 191.727 90.4994C192.075 90.8478 192.214 91.2658 192.284 91.7535V91.8231H191.518V91.7535C191.448 91.4051 191.239 91.1265 191.03 90.8478C190.821 90.5691 190.542 90.3601 190.263 90.2208C189.915 90.0814 189.567 90.0118 189.149 90.0118C188.591 90.0118 188.104 90.1511 187.686 90.4298C187.268 90.7085 186.919 91.1265 186.71 91.6141C186.501 92.1018 186.362 92.7288 186.362 93.3558C186.362 94.0525 186.501 94.6099 186.71 95.0975C186.919 95.5852 187.268 96.0032 187.686 96.2819C188.104 96.5606 188.591 96.6999 189.149 96.6999C189.567 96.6999 189.915 96.6302 190.194 96.4909C190.542 96.3516 190.751 96.1426 190.96 95.8639C191.169 95.5852 191.308 95.3065 191.448 94.8885V94.8189H192.214V94.8885C192.145 95.3762 191.936 95.7942 191.657 96.2122C191.378 96.6302 191.03 96.8392 190.612 97.0483C190.194 97.2573 189.706 97.3269 189.149 97.3269C188.452 97.4663 187.825 97.3269 187.268 96.9786Z" fill="white"/>
<path d="M194.235 97.1177C193.817 96.9087 193.538 96.5603 193.329 96.0727C193.12 95.585 192.981 95.0973 192.981 94.54C192.981 93.913 193.12 93.4253 193.329 93.0073C193.538 92.5893 193.817 92.2409 194.235 92.0319C194.653 91.8229 195.071 91.6836 195.559 91.6836C196.046 91.6836 196.534 91.8229 196.882 92.0319C197.3 92.2409 197.579 92.5893 197.788 93.0073C197.997 93.4253 198.136 93.9826 198.136 94.54C198.136 95.167 197.997 95.6547 197.788 96.0727C197.579 96.4907 197.3 96.839 196.882 97.1177C196.464 97.3964 196.046 97.466 195.559 97.466C195.071 97.466 194.583 97.3267 194.235 97.1177ZM196.534 96.5604C196.813 96.3514 197.022 96.1423 197.161 95.794C197.3 95.4457 197.37 95.0277 197.37 94.54C197.37 94.0523 197.3 93.6343 197.161 93.286C197.022 92.9376 196.813 92.6589 196.534 92.5196C196.255 92.3106 195.907 92.2409 195.559 92.2409C195.21 92.2409 194.862 92.3106 194.583 92.5196C194.305 92.7286 194.096 92.9376 193.956 93.286C193.817 93.6343 193.747 94.0523 193.747 94.54C193.747 95.0277 193.817 95.4457 193.956 95.794C194.096 96.1423 194.305 96.421 194.583 96.5604C194.862 96.7694 195.21 96.839 195.559 96.839C195.907 96.839 196.255 96.6997 196.534 96.5604Z" fill="white"/>
<path d="M199.112 91.6839H199.808V92.6593C199.948 92.3806 200.157 92.1019 200.505 91.8929C200.784 91.6839 201.202 91.6143 201.62 91.6143C202.247 91.6143 202.735 91.8233 203.083 92.1716C203.431 92.5199 203.64 93.0773 203.64 93.7043V97.327H202.944V93.8436C202.944 93.2863 202.804 92.938 202.595 92.6593C202.317 92.3806 201.968 92.2413 201.481 92.2413C201.132 92.2413 200.854 92.3109 200.645 92.4503C200.366 92.5896 200.227 92.7986 200.087 93.0773C199.948 93.356 199.878 93.6346 199.878 93.983V97.327H199.181V91.6839H199.112Z" fill="white"/>
<path d="M205.452 97.1172C205.243 96.9082 205.104 96.5599 205.104 96.0025V92.3101H204.268V91.6831H205.104V90.1504H205.87V91.6831H206.985V92.3101H205.87V96.0025C205.87 96.2812 205.94 96.5599 206.079 96.6295C206.218 96.7689 206.427 96.8385 206.706 96.8385C206.776 96.8385 206.845 96.8385 206.915 96.8385C206.985 96.8385 206.985 96.8385 207.054 96.8385V97.3959C206.985 97.3959 206.915 97.3959 206.845 97.3959C206.776 97.3959 206.706 97.3959 206.567 97.3959C206.079 97.4655 205.731 97.3262 205.452 97.1172Z" fill="white"/>
<path d="M208.029 91.6839H208.726V92.729C208.796 92.3806 209.005 92.1019 209.214 91.8929C209.423 91.6839 209.771 91.6143 210.119 91.6143C210.189 91.6143 210.328 91.6143 210.398 91.6143C210.468 91.6143 210.537 91.6143 210.607 91.6839V92.3806C210.537 92.3806 210.468 92.3109 210.398 92.3109C210.328 92.3109 210.189 92.3109 210.05 92.3109C209.771 92.3109 209.562 92.3806 209.353 92.5199C209.144 92.6593 209.005 92.7986 208.865 93.0773C208.726 93.2863 208.726 93.565 208.726 93.9133V97.3967H208.029V91.6839Z" fill="white"/>
<path d="M211.861 97.2567C211.582 97.1174 211.373 96.9084 211.234 96.6994C211.095 96.4207 211.025 96.142 211.025 95.7937C211.025 95.306 211.234 94.9577 211.582 94.679C211.931 94.4003 212.418 94.261 213.045 94.1913L215.135 94.052V94.6093L213.115 94.7487C212.697 94.7487 212.349 94.888 212.07 95.097C211.791 95.306 211.722 95.515 211.722 95.8634C211.722 96.142 211.861 96.4207 212.07 96.6297C212.279 96.8387 212.627 96.9084 212.976 96.9084C213.324 96.9084 213.603 96.8387 213.881 96.6994C214.16 96.56 214.369 96.351 214.508 96.142C214.648 95.933 214.717 95.6543 214.717 95.306V93.634C214.717 93.216 214.578 92.9373 214.369 92.6586C214.09 92.4496 213.812 92.3103 213.324 92.3103C212.906 92.3103 212.558 92.3799 212.349 92.5889C212.07 92.7979 211.931 93.007 211.861 93.3553V93.425H211.164V93.3553C211.234 93.007 211.304 92.7283 211.513 92.5193C211.722 92.2406 211.931 92.1013 212.279 91.9619C212.627 91.8226 212.976 91.7529 213.394 91.7529C213.812 91.7529 214.23 91.8226 214.508 91.9619C214.787 92.1013 215.066 92.3103 215.205 92.5889C215.344 92.8676 215.484 93.216 215.484 93.5643V97.396H214.787V96.351C214.717 96.56 214.508 96.769 214.369 96.978C214.23 97.187 213.951 97.2567 213.672 97.396C213.394 97.4657 213.185 97.5354 212.906 97.5354C212.488 97.4657 212.14 97.396 211.861 97.2567Z" fill="white"/>
<path d="M217.505 97.1182C217.156 96.9092 216.878 96.5609 216.669 96.0732C216.46 95.6552 216.39 95.0979 216.39 94.5405C216.39 93.9832 216.46 93.4258 216.669 93.0078C216.878 92.5898 217.156 92.2415 217.505 91.9628C217.853 91.7538 218.271 91.6145 218.759 91.6145C219.177 91.6145 219.595 91.7538 219.943 91.9628C220.292 92.1718 220.57 92.5201 220.71 92.8685V89.5244H221.406V97.3272H220.71V96.1429C220.57 96.5609 220.292 96.8396 219.943 97.0486C219.595 97.2576 219.247 97.3969 218.759 97.3969C218.271 97.4666 217.853 97.3272 217.505 97.1182ZM219.874 96.5609C220.152 96.3519 220.361 96.0732 220.501 95.7249C220.64 95.3765 220.71 94.9585 220.71 94.5405C220.71 94.1225 220.64 93.7045 220.501 93.3562C220.361 93.0078 220.152 92.7291 219.874 92.5898C219.595 92.3808 219.316 92.3111 218.968 92.3111C218.62 92.3111 218.271 92.3808 217.992 92.5898C217.714 92.7988 217.505 93.0078 217.365 93.3562C217.226 93.7045 217.156 94.1225 217.156 94.5405C217.156 95.0282 217.226 95.3765 217.365 95.7249C217.505 96.0732 217.714 96.3519 217.992 96.4912C218.271 96.7002 218.55 96.7699 218.968 96.7699C219.247 96.8396 219.595 96.7002 219.874 96.5609Z" fill="white"/>
<path d="M223.635 97.1177C223.217 96.9087 222.938 96.5604 222.729 96.1423C222.52 95.7243 222.451 95.167 222.451 94.6097C222.451 94.0523 222.52 93.495 222.729 93.077C222.938 92.6589 223.217 92.3106 223.635 92.0319C223.983 91.8229 224.471 91.6836 224.959 91.6836C225.446 91.6836 225.864 91.8229 226.282 92.0319C226.631 92.2409 226.909 92.5893 227.118 93.0073C227.327 93.4253 227.397 93.913 227.397 94.4703V94.749H222.799V94.1916H227.049L226.7 94.6793V94.4006C226.7 93.913 226.631 93.5646 226.491 93.2163C226.352 92.8679 226.143 92.6589 225.864 92.5196C225.586 92.3803 225.307 92.2409 224.959 92.2409C224.61 92.2409 224.332 92.3106 224.053 92.5196C223.774 92.7286 223.565 92.9376 223.426 93.2163C223.287 93.495 223.217 93.913 223.217 94.4006V94.6793C223.217 95.167 223.287 95.5153 223.426 95.8637C223.565 96.212 223.774 96.421 224.053 96.63C224.332 96.7694 224.68 96.9087 225.028 96.9087C225.307 96.9087 225.516 96.839 225.795 96.7694C226.073 96.6997 226.213 96.5603 226.352 96.421C226.491 96.2817 226.631 96.0727 226.631 95.8637V95.794H227.327V95.8637C227.258 96.0727 227.188 96.3514 227.049 96.5604C226.909 96.7694 226.77 96.9087 226.561 97.1177C226.352 97.257 226.143 97.3964 225.864 97.466C225.586 97.5357 225.307 97.6054 225.028 97.6054C224.471 97.466 223.983 97.3267 223.635 97.1177Z" fill="white"/>
<path d="M228.373 91.6839H229.07V92.729C229.139 92.3806 229.348 92.1019 229.557 91.8929C229.766 91.6839 230.115 91.6143 230.463 91.6143C230.533 91.6143 230.672 91.6143 230.742 91.6143C230.811 91.6143 230.881 91.6143 230.951 91.6839V92.3806C230.881 92.3806 230.811 92.3109 230.742 92.3109C230.672 92.3109 230.533 92.3109 230.393 92.3109C230.115 92.3109 229.906 92.3806 229.697 92.5199C229.488 92.6593 229.348 92.7986 229.209 93.0773C229.07 93.2863 229.07 93.565 229.07 93.9133V97.3967H228.373V91.6839Z" fill="white"/>
<path d="M136.759 34.4158C134.878 33.3707 133.484 31.838 132.439 29.8873C131.464 27.9366 130.907 25.5679 130.907 22.9205C130.907 20.2035 131.394 17.9044 132.439 15.8841C133.415 13.9333 134.878 12.4006 136.689 11.286C138.501 10.2409 140.66 9.68359 143.099 9.68359C145.607 9.68359 147.697 10.2409 149.508 11.286C151.32 12.331 152.713 13.794 153.688 15.7447C154.664 17.6258 155.151 19.8551 155.151 22.4328V24.5926H134.251V20.2035H151.877L148.602 24.3139V21.6665C148.602 20.2035 148.393 18.9494 147.906 17.9741C147.418 16.9987 146.791 16.2324 146.025 15.7447C145.189 15.257 144.283 14.9784 143.168 14.9784C142.123 14.9784 141.148 15.257 140.312 15.7447C139.476 16.2324 138.849 16.9987 138.361 18.0438C137.874 19.0191 137.665 20.2731 137.665 21.7362V24.4532C137.665 25.8466 137.874 27.0309 138.361 28.0063C138.849 28.9816 139.476 29.748 140.382 30.3053C141.218 30.8627 142.263 31.0717 143.447 31.0717C144.422 31.0717 145.189 30.9324 145.885 30.6537C146.582 30.375 147.139 29.957 147.557 29.539C147.975 29.0513 148.324 28.6333 148.463 28.1456L148.533 28.0063H154.873L154.803 28.285C154.594 29.1906 154.246 30.166 153.688 31.0717C153.131 32.047 152.365 32.8831 151.459 33.6494C150.553 34.4158 149.369 35.0428 148.045 35.5304C146.721 36.0181 145.119 36.2271 143.308 36.2271C140.8 36.0181 138.57 35.4608 136.759 34.4158Z" fill="white"/>
<path d="M163.232 34.9731C161.56 34.2764 160.306 33.3707 159.401 32.1167C158.495 30.9324 157.938 29.539 157.729 27.9366V27.7276H164.486L164.556 27.9366C164.765 28.912 165.253 29.6783 166.019 30.2357C166.785 30.793 167.83 31.0717 169.224 31.0717C170.129 31.0717 170.826 30.9324 171.453 30.7233C172.08 30.5143 172.568 30.2357 172.916 29.8177C173.265 29.3997 173.404 28.9816 173.404 28.4243C173.404 27.7276 173.125 27.1703 172.638 26.8219C172.15 26.4039 171.314 26.0556 170.06 25.7769L165.74 24.8712C163.302 24.3836 161.421 23.4779 160.167 22.2935C158.913 21.0395 158.286 19.5068 158.286 17.6258C158.286 16.0234 158.704 14.63 159.61 13.4457C160.515 12.2613 161.7 11.3556 163.302 10.6589C164.904 10.0319 166.785 9.68359 168.945 9.68359C171.174 9.68359 173.056 10.0319 174.658 10.7286C176.191 11.4253 177.445 12.4006 178.281 13.6547C179.117 14.839 179.535 16.2324 179.604 17.6954V17.9044H173.265V17.6954C173.125 16.7897 172.707 16.0234 172.011 15.466C171.244 14.839 170.269 14.5604 169.015 14.5604C168.248 14.5604 167.552 14.6997 166.925 14.9087C166.367 15.1177 165.88 15.466 165.601 15.8144C165.253 16.2324 165.113 16.6504 165.113 17.2077C165.113 17.8348 165.392 18.3921 165.88 18.8101C166.367 19.2281 167.273 19.5765 168.527 19.8551L172.847 20.7608C175.494 21.3182 177.445 22.1542 178.559 23.2689C179.744 24.3836 180.301 25.8466 180.301 27.7276C180.301 29.3997 179.813 30.793 178.908 32.047C178.002 33.3011 176.678 34.2067 175.006 34.9034C173.334 35.6001 171.453 35.9485 169.224 35.9485C166.855 36.0181 164.835 35.6698 163.232 34.9731Z" fill="white"/>
<path d="M188.104 34.9731C186.432 34.2764 185.178 33.3707 184.272 32.1167C183.366 30.9324 182.809 29.539 182.6 27.9366V27.7276H189.358L189.428 27.9366C189.637 28.912 190.124 29.6783 190.891 30.2357C191.657 30.793 192.702 31.0717 194.095 31.0717C195.001 31.0717 195.698 30.9324 196.325 30.7233C196.952 30.5143 197.439 30.2357 197.788 29.8177C198.136 29.3997 198.275 28.9816 198.275 28.4243C198.275 27.7276 197.997 27.1703 197.509 26.8219C197.021 26.4039 196.185 26.0556 194.931 25.7769L190.612 24.8712C188.174 24.3836 186.293 23.4779 185.038 22.2935C183.784 21.0395 183.157 19.5068 183.157 17.6258C183.157 16.0234 183.575 14.63 184.481 13.4457C185.387 12.2613 186.571 11.3556 188.174 10.6589C189.776 10.0319 191.657 9.68359 193.817 9.68359C196.046 9.68359 197.927 10.0319 199.529 10.7286C201.062 11.4253 202.316 12.4006 203.152 13.6547C203.988 14.839 204.406 16.2324 204.476 17.6954V17.9044H198.136V17.6954C197.997 16.7897 197.579 16.0234 196.882 15.466C196.116 14.839 195.14 14.5604 193.886 14.5604C193.12 14.5604 192.423 14.6997 191.796 14.9087C191.239 15.1177 190.751 15.466 190.473 15.8144C190.124 16.2324 189.985 16.6504 189.985 17.2077C189.985 17.8348 190.264 18.3921 190.751 18.8101C191.239 19.2281 192.145 19.5765 193.399 19.8551L197.718 20.7608C200.365 21.3182 202.316 22.1542 203.431 23.2689C204.615 24.3836 205.173 25.8466 205.173 27.7276C205.173 29.3997 204.685 30.793 203.779 32.047C202.874 33.3011 201.55 34.2067 199.878 34.9034C198.206 35.6001 196.325 35.9485 194.095 35.9485C191.727 36.0181 189.776 35.6698 188.104 34.9731Z" fill="white"/>
<path d="M213.463 34.4158C211.582 33.3707 210.189 31.838 209.144 29.8873C208.169 27.9366 207.611 25.5679 207.611 22.9205C207.611 20.2035 208.099 17.9044 209.144 15.8841C210.119 13.9333 211.582 12.4006 213.394 11.286C215.205 10.2409 217.365 9.68359 219.803 9.68359C222.311 9.68359 224.401 10.2409 226.213 11.286C228.024 12.331 229.417 13.794 230.393 15.7447C231.368 17.6258 231.856 19.8551 231.856 22.4328V24.5926H210.955V20.2035H228.581L225.307 24.3139V21.6665C225.307 20.2035 225.098 18.9494 224.61 17.9741C224.123 16.9987 223.496 16.2324 222.729 15.7447C221.893 15.257 220.988 14.9784 219.873 14.9784C218.828 14.9784 217.853 15.257 217.017 15.7447C216.181 16.2324 215.554 16.9987 215.066 18.0438C214.578 19.0191 214.369 20.2731 214.369 21.7362V24.4532C214.369 25.8466 214.578 27.0309 215.066 28.0063C215.554 28.9816 216.181 29.748 217.086 30.3053C217.922 30.8627 218.967 31.0717 220.152 31.0717C221.127 31.0717 221.893 30.9324 222.59 30.6537C223.287 30.375 223.844 29.957 224.262 29.539C224.68 29.0513 225.028 28.6333 225.168 28.1456L225.237 28.0063H231.577L231.508 28.285C231.299 29.1906 230.95 30.166 230.393 31.0717C229.836 32.047 229.069 32.8831 228.163 33.6494C227.258 34.4158 226.073 35.0428 224.75 35.5304C223.426 36.0181 221.824 36.2271 220.012 36.2271C217.504 36.0181 215.275 35.4608 213.463 34.4158Z" fill="white"/>
<path d="M131.882 50.9968H138.779V55.2466H138.919C139.406 53.7835 140.312 52.6688 141.566 51.7631C142.82 50.9271 144.283 50.4395 146.025 50.4395C147.209 50.4395 148.254 50.6485 149.23 51.0665C150.205 51.4845 150.971 52.0418 151.598 52.8082C152.225 53.5745 152.713 54.5499 152.992 55.6646H153.131C153.479 54.6195 154.106 53.6442 154.873 52.8778C155.639 52.1115 156.545 51.4845 157.59 51.0665C158.635 50.6485 159.75 50.4395 161.004 50.4395C162.676 50.4395 164.139 50.7878 165.323 51.4845C166.577 52.1812 167.552 53.1565 168.249 54.4802C168.946 55.8039 169.294 57.2669 169.294 58.939V76.2863H162.397V60.7503C162.397 59.2873 162.049 58.1726 161.352 57.3366C160.655 56.5702 159.61 56.1522 158.287 56.1522C157.451 56.1522 156.684 56.3612 155.988 56.7792C155.361 57.1973 154.803 57.7546 154.455 58.4513C154.106 59.148 153.897 59.984 153.897 60.9593V76.356H147.279V60.5413C147.279 59.148 146.931 58.1029 146.164 57.3366C145.468 56.5702 144.423 56.2219 143.169 56.2219C142.333 56.2219 141.566 56.4309 140.87 56.8489C140.243 57.2669 139.685 57.8243 139.337 58.5906C138.988 59.2873 138.779 60.1233 138.779 61.0987V76.356H131.882V50.9968Z" fill="white"/>
<path d="M176.748 75.7986C175.494 75.1716 174.449 74.2659 173.753 73.0816C173.056 71.8972 172.708 70.5735 172.708 69.1105V69.0408C172.708 66.7418 173.544 64.9304 175.285 63.6067C177.027 62.283 179.465 61.5167 182.6 61.3077L192.493 60.6807V65.0001L183.645 65.5574C182.322 65.6271 181.346 65.9754 180.65 66.4631C179.953 67.0205 179.605 67.7171 179.605 68.6228V68.6925C179.605 69.5982 179.953 70.3645 180.65 70.8522C181.346 71.4095 182.322 71.6185 183.506 71.6185C184.551 71.6185 185.457 71.4095 186.293 70.9915C187.129 70.5735 187.756 70.0162 188.174 69.3195C188.662 68.6228 188.871 67.8565 188.871 66.9508V59.4266C188.871 58.3119 188.522 57.4063 187.826 56.7792C187.129 56.1522 186.084 55.8039 184.76 55.8039C183.436 55.8039 182.461 56.0826 181.695 56.5702C180.928 57.1276 180.441 57.7546 180.301 58.5906L180.232 58.7996H173.892V58.5209C174.031 56.9882 174.589 55.5949 175.494 54.3409C176.4 53.1565 177.654 52.1812 179.256 51.4845C180.859 50.7878 182.809 50.4395 185.039 50.4395C187.199 50.4395 189.149 50.7878 190.752 51.4845C192.354 52.1812 193.608 53.1565 194.514 54.4802C195.419 55.7342 195.837 57.2669 195.837 58.939V76.2863H188.801V72.5242H188.662C188.174 73.3602 187.547 74.1266 186.85 74.7536C186.084 75.3806 185.248 75.8683 184.342 76.2166C183.367 76.565 182.391 76.7043 181.277 76.7043C179.535 76.774 178.002 76.4256 176.748 75.7986Z" fill="white"/>
<path d="M200.157 50.9968H207.054V55.3859H207.193C207.542 53.8532 208.238 52.5992 209.283 51.7631C210.259 50.9271 211.513 50.4395 212.976 50.4395C213.324 50.4395 213.742 50.4395 214.09 50.5091C214.439 50.5788 214.717 50.6485 214.996 50.7181V56.8489C214.717 56.7096 214.369 56.6399 213.881 56.5702C213.463 56.5006 212.976 56.4309 212.488 56.4309C211.373 56.4309 210.398 56.6399 209.562 57.1276C208.726 57.5456 208.169 58.2423 207.751 59.0783C207.333 59.9143 207.124 60.9593 207.124 62.2134V76.4256H200.226V50.9968H200.157Z" fill="white"/>
<path d="M217.992 42.2188H224.889V76.3561H217.992V42.2188ZM224.053 61.1685H225.028L233.597 50.9969H241.4L229.696 64.3035H228.163L224.053 68.832V61.1685ZM226.073 65.1395L230.462 59.8448L241.888 76.2864H233.946L226.073 65.1395Z" fill="white"/>
<path d="M247.462 75.2419C245.58 74.1969 244.187 72.6642 243.142 70.7135C242.167 68.7628 241.609 66.3941 241.609 63.7467C241.609 61.0296 242.097 58.7306 243.142 56.7102C244.117 54.7595 245.58 53.2268 247.392 52.1121C249.203 51.0671 251.363 50.5098 253.801 50.5098C256.309 50.5098 258.399 51.0671 260.211 52.1121C262.022 53.1572 263.416 54.6202 264.391 56.5709C265.366 58.4519 265.854 60.6813 265.854 63.259V65.4187H244.953V61.0296H262.58L259.305 65.1401V62.4927C259.305 61.0296 259.096 59.7756 258.608 58.8003C258.121 57.8249 257.494 57.0586 256.727 56.5709C255.891 56.0832 254.986 55.8045 253.871 55.8045C252.826 55.8045 251.851 56.0832 251.015 56.5709C250.179 57.0586 249.552 57.8249 249.064 58.8699C248.576 59.8453 248.367 61.0993 248.367 62.5623V65.2794C248.367 66.6728 248.576 67.8571 249.064 68.8325C249.552 69.8078 250.179 70.5742 251.084 71.1315C251.92 71.6889 252.965 71.8979 254.15 71.8979C255.125 71.8979 255.891 71.7585 256.588 71.4799C257.285 71.2012 257.842 70.7832 258.26 70.3652C258.678 69.8775 259.026 69.4595 259.166 68.9718L259.235 68.8325H265.575L265.506 69.1111C265.297 70.0168 264.948 70.9922 264.391 71.8979C263.834 72.8732 263.067 73.7092 262.162 74.4756C261.256 75.2419 260.071 75.8689 258.748 76.3566C257.424 76.8443 255.822 77.0533 254.01 77.0533C251.572 76.8443 249.343 76.3566 247.462 75.2419Z" fill="white"/>
<path d="M273.308 75.1025C271.985 73.9181 271.288 71.9674 271.288 69.2504V56.2224H267.735V50.9973H271.288V44.7969H278.255V50.9973H282.853V56.2224H278.255V68.484C278.255 69.6684 278.533 70.5044 279.021 70.9224C279.578 71.4101 280.345 71.6191 281.39 71.6191C281.738 71.6191 281.947 71.6191 282.226 71.5494C282.435 71.5494 282.714 71.4797 282.853 71.4797V76.5655C282.505 76.6352 282.017 76.7048 281.46 76.7745C280.902 76.8442 280.275 76.8442 279.509 76.8442C276.722 76.8442 274.702 76.2868 273.308 75.1025Z" fill="white"/>
<path d="M112.305 102.273H16.0234V5.99219H112.305V102.273ZM23.1993 95.0976H105.129V13.168H23.1993V95.0976Z" fill="white"/>
<path d="M55.2471 74.2662C52.5997 73.1516 50.5097 71.6885 49.0467 69.7378C47.5836 67.7871 46.6779 65.5577 46.3993 62.98L46.3296 62.6317H57.1282L57.1978 62.98C57.5462 64.5824 58.3822 65.8364 59.5666 66.6724C60.8206 67.5781 62.5623 67.9961 64.722 67.9961C66.1154 67.9961 67.3694 67.8568 68.3448 67.5084C69.3201 67.1601 70.0865 66.6724 70.6438 66.0454C71.2012 65.4184 71.4798 64.6521 71.4798 63.7464V63.6767C71.4798 62.562 71.0618 61.726 70.2955 61.0293C69.5291 60.3326 68.1358 59.845 66.1154 59.4269L59.2182 57.9639C55.2471 57.1279 52.3211 55.7345 50.3007 53.7838C48.2803 51.8331 47.3049 49.3251 47.3049 46.2597V46.19C47.3049 43.6123 48.0016 41.3133 49.395 39.4322C50.7884 37.5512 52.8087 36.0881 55.3865 34.9735C57.9642 33.9284 60.9599 33.3711 64.4433 33.3711C68.0661 33.3711 71.1315 33.9284 73.6395 35.1128C76.1476 36.2972 78.0983 37.8298 79.422 39.7806C80.7457 41.7313 81.5121 43.891 81.5817 46.2597V46.608H71.3405L71.2708 46.3294C71.0618 44.8663 70.4348 43.682 69.2504 42.7066C68.0661 41.7313 66.4637 41.2436 64.3737 41.2436C63.1196 41.2436 62.0049 41.4526 61.0993 41.8009C60.1936 42.1493 59.4272 42.6369 58.9395 43.264C58.4519 43.891 58.1732 44.6573 58.1732 45.563V45.6327C58.1732 46.6777 58.5912 47.5137 59.3576 48.2801C60.1936 48.9767 61.5869 49.5341 63.677 50.0218L70.5741 51.4848C74.8239 52.3905 77.959 53.7142 79.7704 55.4559C81.6514 57.1976 82.5571 59.636 82.5571 62.6317V62.7013C82.5571 65.3487 81.7907 67.6478 80.258 69.6682C78.7253 71.6189 76.6353 73.1516 73.9879 74.2662C71.3405 75.3809 68.2054 75.9383 64.722 75.9383C61.0993 75.8686 57.8945 75.3113 55.2471 74.2662Z" fill="white"/>
</svg>
