<svg width="196" height="67" viewBox="0 0 196 67" fill="none" xmlns="http://www.w3.org/2000/svg">
<path d="M89.6743 50.9411H90.0575V54.8425H89.6743V50.9411ZM89.8485 53.066H90.8935C91.207 53.066 91.416 52.9963 91.5902 52.8221C91.7644 52.648 91.834 52.439 91.834 52.1603C91.834 51.8816 91.7644 51.6726 91.5902 51.4984C91.416 51.3243 91.1722 51.2546 90.8935 51.2546H89.8485V50.9062H90.998C91.2418 50.9062 91.4509 50.9411 91.6599 51.0456C91.834 51.1501 92.0082 51.2894 92.1127 51.4636C92.2172 51.6378 92.2869 51.8468 92.2869 52.0906C92.2869 52.3345 92.2172 52.5435 92.1127 52.7176C92.0082 52.8918 91.8689 53.0311 91.6599 53.1356C91.4509 53.2401 91.2418 53.275 90.998 53.275H89.8485V53.066Z" fill="white"/>
<path d="M93.1231 54.7376C92.9141 54.6331 92.7748 54.4589 92.6703 54.2151C92.5658 53.9712 92.4961 53.7274 92.4961 53.4487C92.4961 53.1352 92.5658 52.8914 92.6703 52.6824C92.7748 52.4734 92.9141 52.2992 93.1231 52.1947C93.3321 52.0902 93.5411 52.0205 93.785 52.0205C94.0288 52.0205 94.2726 52.0902 94.4468 52.1947C94.6558 52.2992 94.7951 52.4734 94.8997 52.6824C95.0042 52.8914 95.0738 53.17 95.0738 53.4487C95.0738 53.7622 95.0042 54.0061 94.8997 54.2151C94.7951 54.4241 94.6558 54.5982 94.4468 54.7376C94.2378 54.8769 94.0288 54.9117 93.785 54.9117C93.5411 54.9117 93.3321 54.8421 93.1231 54.7376ZM94.2726 54.4589C94.412 54.3544 94.5165 54.2499 94.5861 54.0757C94.6558 53.9016 94.6906 53.6925 94.6906 53.4487C94.6906 53.2049 94.6558 52.9959 94.5861 52.8217C94.5165 52.6475 94.412 52.5082 94.2726 52.4385C94.1333 52.334 93.9591 52.2992 93.785 52.2992C93.6108 52.2992 93.4366 52.334 93.2973 52.4385C93.1579 52.543 93.0534 52.6475 92.9838 52.8217C92.9141 52.9959 92.8793 53.2049 92.8793 53.4487C92.8793 53.6925 92.9141 53.9016 92.9838 54.0757C93.0534 54.2499 93.1579 54.3892 93.2973 54.4589C93.4366 54.5634 93.6108 54.5982 93.785 54.5982C93.994 54.5982 94.1333 54.5286 94.2726 54.4589Z" fill="white"/>
<path d="M95.3174 52.0205H95.6657L96.2927 54.4589L96.9894 52.0205H97.3378L98.0344 54.4589L98.6615 52.0205H99.0098L98.2086 54.8421H97.8254L97.1288 52.5082L96.4321 54.8421H96.0489L95.3174 52.0205Z" fill="white"/>
<path d="M99.8808 54.7376C99.6717 54.6331 99.5324 54.4589 99.4279 54.2499C99.3234 54.0409 99.2886 53.7622 99.2886 53.4835C99.2886 53.2049 99.3234 52.9262 99.4279 52.7172C99.5324 52.5082 99.6717 52.334 99.8808 52.1947C100.055 52.0902 100.299 52.0205 100.543 52.0205C100.786 52.0205 100.995 52.0902 101.204 52.1947C101.379 52.2992 101.518 52.4734 101.622 52.6824C101.727 52.8914 101.762 53.1352 101.762 53.4139V53.5532H99.4627V53.2745H101.588L101.413 53.5184V53.379C101.413 53.1352 101.379 52.961 101.309 52.7869C101.239 52.6127 101.135 52.5082 100.995 52.4385C100.856 52.3688 100.717 52.2992 100.543 52.2992C100.368 52.2992 100.229 52.334 100.09 52.4385C99.9504 52.543 99.8459 52.6475 99.7763 52.7869C99.7066 52.9262 99.6718 53.1352 99.6718 53.379V53.5184C99.6718 53.7622 99.7066 53.9364 99.7763 54.1106C99.8459 54.2847 99.9504 54.3892 100.09 54.4937C100.229 54.5634 100.403 54.6331 100.577 54.6331C100.717 54.6331 100.821 54.5982 100.961 54.5634C101.1 54.5286 101.17 54.4589 101.239 54.3892C101.309 54.3196 101.379 54.2151 101.379 54.1106V54.0757H101.727V54.1106C101.692 54.2151 101.657 54.3544 101.588 54.4589C101.518 54.5634 101.448 54.6331 101.344 54.7376C101.239 54.8072 101.135 54.8769 100.995 54.9117C100.856 54.9466 100.717 54.9814 100.577 54.9814C100.299 54.9118 100.09 54.8421 99.8808 54.7376Z" fill="white"/>
<path d="M102.25 52.0202H102.598V52.5427C102.633 52.3685 102.737 52.2292 102.842 52.1247C102.946 52.0202 103.12 51.9854 103.295 51.9854C103.329 51.9854 103.399 51.9854 103.434 51.9854C103.469 51.9854 103.504 51.9854 103.538 52.0202V52.3685C103.504 52.3685 103.469 52.3337 103.434 52.3337C103.399 52.3337 103.329 52.3337 103.26 52.3337C103.12 52.3337 103.016 52.3685 102.911 52.4382C102.807 52.5079 102.737 52.5775 102.668 52.7169C102.598 52.8214 102.598 52.9607 102.598 53.1349V54.8766H102.25V52.0202Z" fill="white"/>
<path d="M104.235 54.7376C104.026 54.6331 103.886 54.4589 103.782 54.2499C103.677 54.0409 103.643 53.7622 103.643 53.4835C103.643 53.2049 103.677 52.9262 103.782 52.7172C103.886 52.5082 104.026 52.334 104.235 52.1947C104.409 52.0902 104.653 52.0205 104.897 52.0205C105.14 52.0205 105.349 52.0902 105.558 52.1947C105.733 52.2992 105.872 52.4734 105.976 52.6824C106.081 52.8914 106.116 53.1352 106.116 53.4139V53.5532H103.817V53.2745H105.942L105.767 53.5184V53.379C105.767 53.1352 105.733 52.961 105.663 52.7869C105.593 52.6127 105.489 52.5082 105.349 52.4385C105.21 52.3688 105.071 52.2992 104.897 52.2992C104.722 52.2992 104.583 52.334 104.444 52.4385C104.304 52.543 104.2 52.6475 104.13 52.7869C104.061 52.9262 104.026 53.1352 104.026 53.379V53.5184C104.026 53.7622 104.061 53.9364 104.13 54.1106C104.2 54.2847 104.304 54.3892 104.444 54.4937C104.583 54.5634 104.757 54.6331 104.931 54.6331C105.071 54.6331 105.175 54.5982 105.315 54.5634C105.454 54.5286 105.524 54.4589 105.593 54.3892C105.663 54.3196 105.733 54.2151 105.733 54.1106V54.0757H106.081V54.1106C106.046 54.2151 106.011 54.3544 105.942 54.4589C105.872 54.5634 105.802 54.6331 105.698 54.7376C105.593 54.8072 105.489 54.8769 105.349 54.9117C105.21 54.9466 105.071 54.9814 104.931 54.9814C104.653 54.9118 104.409 54.8421 104.235 54.7376Z" fill="white"/>
<path d="M107.022 54.7374C106.848 54.6329 106.708 54.4587 106.604 54.2148C106.499 54.0058 106.464 53.7272 106.464 53.4485C106.464 53.1698 106.499 52.8911 106.604 52.6821C106.708 52.4731 106.848 52.299 107.022 52.1596C107.196 52.0551 107.405 51.9855 107.649 51.9855C107.858 51.9855 108.067 52.0551 108.241 52.1596C108.415 52.2641 108.554 52.4383 108.624 52.6125V50.9404H108.972V54.8419H108.624V54.2497C108.554 54.4587 108.415 54.598 108.241 54.7025C108.067 54.807 107.893 54.8767 107.649 54.8767C107.405 54.9115 107.196 54.8419 107.022 54.7374ZM108.171 54.4587C108.311 54.3542 108.415 54.2148 108.485 54.0407C108.554 53.8665 108.589 53.6575 108.589 53.4485C108.589 53.2395 108.554 53.0305 108.485 52.8563C108.415 52.6821 108.311 52.5428 108.171 52.4731C108.032 52.3686 107.893 52.3338 107.718 52.3338C107.544 52.3338 107.37 52.3686 107.231 52.4731C107.091 52.5776 106.987 52.6821 106.917 52.8563C106.848 53.0305 106.813 53.2395 106.813 53.4485C106.813 53.6923 106.848 53.8665 106.917 54.0407C106.987 54.2148 107.091 54.3542 107.231 54.4239C107.37 54.5284 107.509 54.5632 107.718 54.5632C107.893 54.598 108.032 54.5284 108.171 54.4587Z" fill="white"/>
<path d="M111.515 54.7374C111.341 54.6329 111.237 54.4587 111.132 54.2497V54.8419H110.784V50.9404H111.132V52.6125C111.202 52.4035 111.341 52.2641 111.515 52.1596C111.689 52.0551 111.898 51.9855 112.107 51.9855C112.351 51.9855 112.56 52.0551 112.734 52.1596C112.909 52.2641 113.048 52.4383 113.152 52.6821C113.257 52.8911 113.292 53.1698 113.292 53.4485C113.292 53.7272 113.257 54.0058 113.152 54.2148C113.048 54.4239 112.909 54.598 112.734 54.7374C112.56 54.8419 112.351 54.9115 112.107 54.9115C111.898 54.9115 111.689 54.8419 111.515 54.7374ZM112.525 54.4587C112.665 54.3542 112.769 54.2497 112.839 54.0755C112.909 53.9013 112.943 53.6923 112.943 53.4833C112.943 53.2395 112.909 53.0653 112.839 52.8912C112.769 52.717 112.665 52.5776 112.525 52.508C112.386 52.4035 112.247 52.3686 112.038 52.3686C111.864 52.3686 111.689 52.4035 111.585 52.508C111.446 52.6125 111.341 52.7518 111.271 52.8912C111.202 53.0653 111.167 53.2743 111.167 53.4833C111.167 53.6923 111.202 53.9013 111.271 54.0755C111.341 54.2497 111.446 54.389 111.585 54.4935C111.724 54.598 111.864 54.6329 112.038 54.6329C112.212 54.598 112.386 54.5284 112.525 54.4587Z" fill="white"/>
<path d="M113.779 55.8174C113.745 55.8174 113.71 55.8174 113.675 55.8174V55.5039C113.71 55.5039 113.71 55.5039 113.745 55.5039C113.779 55.5039 113.779 55.5039 113.814 55.5039C113.988 55.5039 114.093 55.4691 114.198 55.3994C114.302 55.3298 114.372 55.2253 114.441 55.0511L114.511 54.8769L113.431 52.0205H113.814L114.72 54.5982L114.616 54.4937H114.755L114.65 54.5982L115.556 52.0205H115.939L114.825 55.0511C114.755 55.2253 114.685 55.3646 114.616 55.4691C114.546 55.5736 114.441 55.6433 114.337 55.7129C114.232 55.7478 114.093 55.7826 113.919 55.7826C113.849 55.8174 113.814 55.8174 113.779 55.8174Z" fill="white"/>
<path d="M118.134 54.668C117.855 54.4939 117.646 54.25 117.507 53.9713C117.368 53.6927 117.298 53.3095 117.298 52.8915C117.298 52.4735 117.368 52.1251 117.507 51.8116C117.646 51.4981 117.855 51.2891 118.134 51.1149C118.413 50.9408 118.726 50.8711 119.074 50.8711C119.353 50.8711 119.597 50.9059 119.806 51.0104C120.015 51.1149 120.189 51.2543 120.363 51.4284C120.537 51.6026 120.607 51.8116 120.642 52.0555V52.0903H120.259V52.0555C120.224 51.8813 120.119 51.7419 120.015 51.6026C119.91 51.4633 119.771 51.3588 119.632 51.2891C119.458 51.2194 119.283 51.1846 119.074 51.1846C118.796 51.1846 118.552 51.2543 118.343 51.3936C118.134 51.5329 117.96 51.7419 117.855 51.9858C117.751 52.2296 117.681 52.5431 117.681 52.8566C117.681 53.205 117.751 53.4837 117.855 53.7275C117.96 53.9713 118.134 54.1803 118.343 54.3197C118.552 54.459 118.796 54.5287 119.074 54.5287C119.283 54.5287 119.458 54.4939 119.597 54.4242C119.771 54.3545 119.876 54.25 119.98 54.1107C120.085 53.9713 120.154 53.832 120.224 53.623V53.5882H120.607V53.623C120.572 53.8668 120.468 54.0758 120.328 54.2849C120.189 54.4939 120.015 54.5984 119.806 54.7029C119.597 54.8074 119.353 54.8422 119.074 54.8422C118.726 54.9119 118.413 54.8422 118.134 54.668Z" fill="white"/>
<path d="M121.617 54.7376C121.408 54.6331 121.269 54.4589 121.164 54.2151C121.06 53.9712 120.99 53.7274 120.99 53.4487C120.99 53.1352 121.06 52.8914 121.164 52.6824C121.269 52.4734 121.408 52.2992 121.617 52.1947C121.826 52.0902 122.035 52.0205 122.279 52.0205C122.523 52.0205 122.767 52.0902 122.941 52.1947C123.15 52.2992 123.289 52.4734 123.394 52.6824C123.498 52.8914 123.568 53.17 123.568 53.4487C123.568 53.7622 123.498 54.0061 123.394 54.2151C123.289 54.4241 123.15 54.5982 122.941 54.7376C122.732 54.8769 122.523 54.9117 122.279 54.9117C122.035 54.9117 121.791 54.8421 121.617 54.7376ZM122.767 54.4589C122.906 54.3544 123.011 54.2499 123.08 54.0757C123.15 53.9016 123.185 53.6925 123.185 53.4487C123.185 53.2049 123.15 52.9959 123.08 52.8217C123.011 52.6475 122.906 52.5082 122.767 52.4385C122.627 52.334 122.453 52.2992 122.279 52.2992C122.105 52.2992 121.931 52.334 121.791 52.4385C121.652 52.543 121.548 52.6475 121.478 52.8217C121.408 52.9959 121.373 53.2049 121.373 53.4487C121.373 53.6925 121.408 53.9016 121.478 54.0757C121.548 54.2499 121.652 54.3892 121.791 54.4589C121.931 54.5634 122.105 54.5982 122.279 54.5982C122.453 54.5982 122.627 54.5286 122.767 54.4589Z" fill="white"/>
<path d="M124.056 52.0202H124.404V52.5079C124.474 52.3685 124.578 52.2292 124.752 52.1247C124.892 52.0202 125.101 51.9854 125.31 51.9854C125.623 51.9854 125.867 52.0899 126.041 52.264C126.215 52.4382 126.32 52.7169 126.32 53.0304V54.8418H125.972V53.1C125.972 52.8214 125.902 52.6472 125.797 52.5079C125.658 52.3685 125.484 52.2989 125.24 52.2989C125.066 52.2989 124.927 52.3337 124.822 52.4034C124.683 52.473 124.613 52.5775 124.543 52.7169C124.474 52.8562 124.439 52.9955 124.439 53.1697V54.8418H124.091V52.0202H124.056Z" fill="white"/>
<path d="M127.225 54.7373C127.121 54.6328 127.051 54.4587 127.051 54.18V52.3338H126.633V52.0203H127.051V51.2539H127.434V52.0203H127.992V52.3338H127.434V54.18C127.434 54.3193 127.469 54.4587 127.539 54.4935C127.609 54.5632 127.713 54.598 127.852 54.598C127.887 54.598 127.922 54.598 127.957 54.598C127.992 54.598 127.992 54.598 128.027 54.598V54.8767C127.992 54.8767 127.957 54.8767 127.922 54.8767C127.887 54.8767 127.852 54.8767 127.783 54.8767C127.539 54.9115 127.365 54.8418 127.225 54.7373Z" fill="white"/>
<path d="M128.514 52.0202H128.863V52.5427C128.897 52.3685 129.002 52.2292 129.106 52.1247C129.211 52.0202 129.385 51.9854 129.559 51.9854C129.594 51.9854 129.664 51.9854 129.699 51.9854C129.733 51.9854 129.768 51.9854 129.803 52.0202V52.3685C129.768 52.3685 129.733 52.3337 129.699 52.3337C129.664 52.3337 129.594 52.3337 129.524 52.3337C129.385 52.3337 129.281 52.3685 129.176 52.4382C129.072 52.5079 129.002 52.5775 128.932 52.7169C128.862 52.8214 128.863 52.9607 128.863 53.1349V54.8766H128.514V52.0202Z" fill="white"/>
<path d="M130.43 54.8076C130.291 54.7379 130.186 54.6334 130.117 54.5289C130.047 54.3896 130.012 54.2502 130.012 54.0761C130.012 53.8322 130.117 53.658 130.291 53.5187C130.465 53.3794 130.709 53.3097 131.022 53.2749L132.067 53.2052V53.4839L131.057 53.5535C130.848 53.5535 130.674 53.6232 130.535 53.7277C130.395 53.8322 130.361 53.9367 130.361 54.1109C130.361 54.2502 130.43 54.3896 130.535 54.4941C130.639 54.5986 130.813 54.6334 130.988 54.6334C131.162 54.6334 131.301 54.5986 131.44 54.5289C131.58 54.4592 131.684 54.3547 131.754 54.2502C131.824 54.1457 131.858 54.0064 131.858 53.8322V52.9962C131.858 52.7872 131.789 52.6478 131.684 52.5085C131.545 52.404 131.406 52.3343 131.162 52.3343C130.953 52.3343 130.779 52.3692 130.674 52.4737C130.535 52.5782 130.465 52.6827 130.43 52.8569V52.8917H130.082V52.8569C130.117 52.6827 130.152 52.5433 130.256 52.4388C130.361 52.2995 130.465 52.2298 130.639 52.1602C130.813 52.0905 130.988 52.0557 131.197 52.0557C131.406 52.0557 131.615 52.0905 131.754 52.1602C131.893 52.2298 132.033 52.3343 132.102 52.4737C132.172 52.613 132.242 52.7872 132.242 52.9614V54.8772H131.893V54.3547C131.858 54.4592 131.754 54.5637 131.684 54.6682C131.615 54.7727 131.475 54.8076 131.336 54.8772C131.197 54.9121 131.092 54.9469 130.953 54.9469C130.744 54.9121 130.57 54.8772 130.43 54.8076Z" fill="white"/>
<path d="M133.252 54.7374C133.078 54.6329 132.938 54.4587 132.834 54.2148C132.729 54.0058 132.694 53.7272 132.694 53.4485C132.694 53.1698 132.729 52.8911 132.834 52.6821C132.938 52.4731 133.078 52.299 133.252 52.1596C133.426 52.0551 133.635 51.9855 133.879 51.9855C134.088 51.9855 134.297 52.0551 134.471 52.1596C134.645 52.2641 134.784 52.4383 134.854 52.6125V50.9404H135.202V54.8419H134.854V54.2497C134.784 54.4587 134.645 54.598 134.471 54.7025C134.297 54.807 134.123 54.8767 133.879 54.8767C133.635 54.9115 133.426 54.8419 133.252 54.7374ZM134.436 54.4587C134.575 54.3542 134.68 54.2148 134.75 54.0407C134.819 53.8665 134.854 53.6575 134.854 53.4485C134.854 53.2395 134.819 53.0305 134.75 52.8563C134.68 52.6821 134.575 52.5428 134.436 52.4731C134.297 52.3686 134.157 52.3338 133.983 52.3338C133.809 52.3338 133.635 52.3686 133.496 52.4731C133.356 52.5776 133.252 52.6821 133.182 52.8563C133.112 53.0305 133.078 53.2395 133.078 53.4485C133.078 53.6923 133.112 53.8665 133.182 54.0407C133.252 54.2148 133.356 54.3542 133.496 54.4239C133.635 54.5284 133.774 54.5632 133.983 54.5632C134.123 54.598 134.297 54.5284 134.436 54.4587Z" fill="white"/>
<path d="M136.317 54.7376C136.108 54.6331 135.969 54.4589 135.864 54.2499C135.76 54.0409 135.725 53.7622 135.725 53.4835C135.725 53.2049 135.76 52.9262 135.864 52.7172C135.969 52.5082 136.108 52.334 136.317 52.1947C136.491 52.0902 136.735 52.0205 136.979 52.0205C137.223 52.0205 137.432 52.0902 137.641 52.1947C137.815 52.2992 137.954 52.4734 138.059 52.6824C138.163 52.8914 138.198 53.1352 138.198 53.4139V53.5532H135.899V53.2745H138.024L137.85 53.5184V53.379C137.85 53.1352 137.815 52.961 137.745 52.7869C137.676 52.6127 137.571 52.5082 137.432 52.4385C137.293 52.3688 137.153 52.2992 136.979 52.2992C136.805 52.2992 136.666 52.334 136.526 52.4385C136.387 52.543 136.282 52.6475 136.213 52.7869C136.143 52.9262 136.108 53.1352 136.108 53.379V53.5184C136.108 53.7622 136.143 53.9364 136.213 54.1106C136.282 54.2847 136.387 54.3892 136.526 54.4937C136.666 54.5634 136.84 54.6331 137.014 54.6331C137.153 54.6331 137.258 54.5982 137.397 54.5634C137.536 54.5286 137.606 54.4589 137.676 54.3892C137.745 54.3196 137.815 54.2151 137.815 54.1106V54.0757H138.163V54.1106C138.129 54.2151 138.094 54.3544 138.024 54.4589C137.954 54.5634 137.885 54.6331 137.78 54.7376C137.676 54.8072 137.571 54.8769 137.432 54.9117C137.293 54.9466 137.153 54.9814 137.014 54.9814C136.735 54.9118 136.491 54.8421 136.317 54.7376Z" fill="white"/>
<path d="M138.686 52.0202H139.034V52.5427C139.069 52.3685 139.174 52.2292 139.278 52.1247C139.383 52.0202 139.557 51.9854 139.731 51.9854C139.766 51.9854 139.836 51.9854 139.87 51.9854C139.905 51.9854 139.94 51.9854 139.975 52.0202V52.3685C139.94 52.3685 139.905 52.3337 139.87 52.3337C139.836 52.3337 139.766 52.3337 139.696 52.3337C139.557 52.3337 139.452 52.3685 139.348 52.4382C139.243 52.5079 139.174 52.5775 139.104 52.7169C139.034 52.8214 139.034 52.9607 139.034 53.1349V54.8766H138.686V52.0202Z" fill="white"/>
<path d="M92.8792 23.3867C91.9387 22.8642 91.242 22.0978 90.7195 21.1224C90.2318 20.1471 89.9531 18.9627 89.9531 17.639C89.9531 16.2805 90.197 15.131 90.7195 14.1208C91.2072 13.1454 91.9387 12.379 92.8444 11.8217C93.75 11.2992 94.8299 11.0205 96.0491 11.0205C97.3031 11.0205 98.3482 11.2992 99.2538 11.8217C100.16 12.3442 100.856 13.0757 101.344 14.0511C101.832 14.9916 102.075 16.1063 102.075 17.3952V18.475H91.6252V16.2805H100.438L98.801 18.3357V17.012C98.801 16.2805 98.6965 15.6535 98.4527 15.1658C98.2088 14.6781 97.8953 14.2949 97.5121 14.0511C97.0941 13.8072 96.6413 13.6679 96.0839 13.6679C95.5614 13.6679 95.0737 13.8072 94.6557 14.0511C94.2377 14.2949 93.9242 14.6781 93.6804 15.2006C93.4365 15.6883 93.332 16.3153 93.332 17.0468V18.4054C93.332 19.1021 93.4365 19.6942 93.6804 20.1819C93.9242 20.6696 94.2377 21.0528 94.6906 21.3315C95.1086 21.6101 95.6311 21.7146 96.2233 21.7146C96.7109 21.7146 97.0941 21.645 97.4425 21.5056C97.7908 21.3663 98.0695 21.1573 98.2785 20.9483C98.4875 20.7044 98.6617 20.4954 98.7313 20.2516L98.7662 20.1819H101.936L101.901 20.3213C101.797 20.7741 101.623 21.2618 101.344 21.7146C101.065 22.2023 100.682 22.6203 100.229 23.0035C99.7763 23.3867 99.1842 23.7002 98.5223 23.944C97.8605 24.1879 97.0593 24.2924 96.1536 24.2924C94.8996 24.1879 93.7849 23.9092 92.8792 23.3867Z" fill="white"/>
<path d="M106.116 23.6653C105.28 23.317 104.653 22.8642 104.2 22.2371C103.747 21.645 103.469 20.9483 103.364 20.1471V20.0426H106.743L106.778 20.1471C106.883 20.6348 107.126 21.0179 107.51 21.2966C107.893 21.5753 108.415 21.7146 109.112 21.7146C109.565 21.7146 109.913 21.645 110.227 21.5405C110.54 21.436 110.784 21.2966 110.958 21.0876C111.132 20.8786 111.202 20.6696 111.202 20.3909C111.202 20.0426 111.063 19.7639 110.819 19.5897C110.575 19.3807 110.157 19.2066 109.53 19.0672L107.37 18.6144C106.151 18.3705 105.21 17.9177 104.583 17.3255C103.956 16.6985 103.643 15.9321 103.643 14.9916C103.643 14.1904 103.852 13.4937 104.305 12.9016C104.758 12.3094 105.35 11.8565 106.151 11.5082C106.952 11.1947 107.893 11.0205 108.973 11.0205C110.087 11.0205 111.028 11.1947 111.829 11.543C112.595 11.8914 113.222 12.379 113.64 13.0061C114.058 13.5982 114.267 14.2949 114.302 15.0264V15.131H111.132V15.0264C111.063 14.5736 110.854 14.1904 110.505 13.9118C110.122 13.5982 109.634 13.4589 109.007 13.4589C108.624 13.4589 108.276 13.5286 107.962 13.6331C107.684 13.7376 107.44 13.9118 107.301 14.0859C107.126 14.2949 107.057 14.5039 107.057 14.7826C107.057 15.0961 107.196 15.3748 107.44 15.5838C107.684 15.7928 108.137 15.967 108.764 16.1063L110.923 16.5592C112.247 16.8378 113.222 17.2558 113.78 17.8132C114.372 18.3705 114.651 19.1021 114.651 20.0426C114.651 20.8786 114.407 21.5753 113.954 22.2023C113.501 22.8293 112.839 23.2822 112.003 23.6305C111.167 23.9789 110.227 24.153 109.112 24.153C107.928 24.1879 106.917 24.0137 106.116 23.6653Z" fill="white"/>
<path d="M118.552 23.6653C117.716 23.317 117.089 22.8642 116.636 22.2371C116.183 21.645 115.904 20.9483 115.8 20.1471V20.0426H119.179L119.214 20.1471C119.318 20.6348 119.562 21.0179 119.945 21.2966C120.328 21.5753 120.851 21.7146 121.547 21.7146C122 21.7146 122.349 21.645 122.662 21.5405C122.976 21.436 123.219 21.2966 123.394 21.0876C123.568 20.8786 123.637 20.6696 123.637 20.3909C123.637 20.0426 123.498 19.7639 123.254 19.5897C123.01 19.3807 122.592 19.2066 121.965 19.0672L119.806 18.6144C118.587 18.3705 117.646 17.9177 117.019 17.3255C116.392 16.6985 116.078 15.9321 116.078 14.9916C116.078 14.1904 116.287 13.4937 116.74 12.9016C117.193 12.3094 117.785 11.8565 118.587 11.5082C119.388 11.1947 120.328 11.0205 121.408 11.0205C122.523 11.0205 123.463 11.1947 124.264 11.543C125.031 11.8914 125.658 12.379 126.076 13.0061C126.494 13.5982 126.703 14.2949 126.738 15.0264V15.131H123.568V15.0264C123.498 14.5736 123.289 14.1904 122.941 13.9118C122.558 13.5982 122.07 13.4589 121.443 13.4589C121.06 13.4589 120.711 13.5286 120.398 13.6331C120.119 13.7376 119.875 13.9118 119.736 14.0859C119.562 14.2949 119.492 14.5039 119.492 14.7826C119.492 15.0961 119.632 15.3748 119.875 15.5838C120.119 15.7928 120.572 15.967 121.199 16.1063L123.359 16.5592C124.682 16.8378 125.658 17.2558 126.215 17.8132C126.807 18.3705 127.086 19.1021 127.086 20.0426C127.086 20.8786 126.842 21.5753 126.389 22.2023C125.937 22.8293 125.275 23.2822 124.439 23.6305C123.603 23.9789 122.662 24.153 121.547 24.153C120.363 24.1879 119.388 24.0137 118.552 23.6653Z" fill="white"/>
<path d="M131.232 23.3867C130.291 22.8642 129.595 22.0978 129.072 21.1224C128.584 20.1471 128.306 18.9627 128.306 17.639C128.306 16.2805 128.55 15.131 129.072 14.1208C129.56 13.1454 130.291 12.379 131.197 11.8217C132.103 11.2992 133.182 11.0205 134.402 11.0205C135.656 11.0205 136.701 11.2992 137.606 11.8217C138.512 12.3442 139.209 13.0757 139.696 14.0511C140.184 14.9916 140.428 16.1063 140.428 17.3952V18.475H129.978V16.2805H138.791L137.154 18.3357V17.012C137.154 16.2805 137.049 15.6535 136.805 15.1658C136.561 14.6781 136.248 14.2949 135.865 14.0511C135.447 13.8072 134.994 13.6679 134.436 13.6679C133.914 13.6679 133.426 13.8072 133.008 14.0511C132.59 14.2949 132.277 14.6781 132.033 15.2006C131.789 15.6883 131.685 16.3153 131.685 17.0468V18.4054C131.685 19.1021 131.789 19.6942 132.033 20.1819C132.277 20.6696 132.59 21.0528 133.043 21.3315C133.461 21.6101 133.984 21.7146 134.576 21.7146C135.063 21.7146 135.447 21.645 135.795 21.5056C136.143 21.3663 136.422 21.1573 136.631 20.9483C136.84 20.7044 137.014 20.4954 137.084 20.2516L137.119 20.1819H140.289L140.254 20.3213C140.149 20.7741 139.975 21.2618 139.696 21.7146C139.418 22.2023 139.035 22.6203 138.582 23.0035C138.129 23.3867 137.537 23.7002 136.875 23.944C136.213 24.1879 135.412 24.2924 134.506 24.2924C133.252 24.1879 132.137 23.9092 131.232 23.3867Z" fill="white"/>
<path d="M90.4409 31.6771H93.8895V33.802H93.9592C94.203 33.0705 94.6558 32.5131 95.2829 32.0603C95.9099 31.6423 96.6414 31.3984 97.5122 31.3984C98.1044 31.3984 98.6269 31.5029 99.1146 31.7119C99.6023 31.921 99.9855 32.1996 100.299 32.5828C100.612 32.966 100.856 33.4537 100.996 34.011H101.065C101.239 33.4885 101.553 33.0008 101.936 32.6176C102.319 32.2345 102.772 31.921 103.295 31.7119C103.817 31.5029 104.375 31.3984 105.002 31.3984C105.838 31.3984 106.569 31.5726 107.161 31.921C107.788 32.2693 108.276 32.757 108.624 33.4188C108.973 34.0807 109.147 34.8122 109.147 35.6482V44.322H105.698V36.5539C105.698 35.8224 105.524 35.265 105.176 34.847C104.827 34.4639 104.305 34.2548 103.643 34.2548C103.225 34.2548 102.842 34.3593 102.494 34.5684C102.18 34.7774 101.901 35.056 101.727 35.4044C101.553 35.7527 101.448 36.1707 101.448 36.6584V44.3568H98.1393V36.4494C98.1393 35.7527 97.9651 35.2302 97.5819 34.847C97.2336 34.4639 96.7111 34.2897 96.084 34.2897C95.666 34.2897 95.2829 34.3942 94.9345 34.6032C94.621 34.8122 94.3423 35.0909 94.1682 35.474C93.994 35.8224 93.8895 36.2404 93.8895 36.7281V44.3568H90.4409V31.6771Z" fill="white"/>
<path d="M112.874 44.0781C112.247 43.7646 111.724 43.3118 111.376 42.7196C111.028 42.1274 110.854 41.4655 110.854 40.734V40.6992C110.854 39.5497 111.272 38.644 112.142 37.9821C113.013 37.3203 114.232 36.9371 115.8 36.8326L120.746 36.5191V38.6788L116.322 38.9575C115.661 38.9923 115.173 39.1665 114.825 39.4103C114.476 39.689 114.302 40.0373 114.302 40.4902V40.525C114.302 40.9779 114.476 41.361 114.825 41.6049C115.173 41.8835 115.661 41.9881 116.253 41.9881C116.775 41.9881 117.228 41.8836 117.646 41.6745C118.064 41.4655 118.378 41.1869 118.587 40.8385C118.831 40.4902 118.935 40.107 118.935 39.6542V35.8921C118.935 35.3347 118.761 34.8819 118.413 34.5684C118.064 34.2548 117.542 34.0807 116.88 34.0807C116.218 34.0807 115.73 34.22 115.347 34.4639C114.964 34.7425 114.72 35.056 114.65 35.474L114.616 35.5785H111.446V35.4392C111.515 34.6729 111.794 33.9762 112.247 33.3492C112.7 32.757 113.327 32.2693 114.128 31.921C114.929 31.5726 115.904 31.3984 117.019 31.3984C118.099 31.3984 119.074 31.5726 119.876 31.921C120.677 32.2693 121.304 32.757 121.757 33.4188C122.209 34.0458 122.418 34.8122 122.418 35.6482V44.3219H118.9V42.4409H118.831C118.587 42.8589 118.273 43.2421 117.925 43.5556C117.542 43.8691 117.124 44.1129 116.671 44.2871C116.183 44.4613 115.695 44.531 115.138 44.531C114.267 44.5658 113.501 44.3916 112.874 44.0781Z" fill="white"/>
<path d="M124.578 31.6771H128.027V33.8717H128.096C128.271 33.1053 128.619 32.4783 129.141 32.0603C129.629 31.6423 130.256 31.3984 130.988 31.3984C131.162 31.3984 131.371 31.3984 131.545 31.4333C131.719 31.4681 131.858 31.5029 131.998 31.5378V34.6032C131.858 34.5335 131.684 34.4987 131.44 34.4639C131.231 34.429 130.988 34.3942 130.744 34.3942C130.186 34.3942 129.699 34.4987 129.281 34.7425C128.863 34.9515 128.584 35.2999 128.375 35.7179C128.166 36.1359 128.062 36.6584 128.062 37.2854V44.3916H124.613V31.6771H124.578Z" fill="white"/>
<path d="M133.496 27.2881H136.944V44.3569H133.496V27.2881ZM136.526 36.763H137.014L141.298 31.6772H145.2L139.348 38.3305H138.581L136.526 40.5948V36.763ZM137.536 38.7486L139.731 36.1012L145.444 44.322H141.473L137.536 38.7486Z" fill="white"/>
<path d="M148.231 43.7998C147.29 43.2772 146.594 42.5109 146.071 41.5355C145.583 40.5602 145.305 39.3758 145.305 38.0521C145.305 36.6936 145.549 35.544 146.071 34.5338C146.559 33.5585 147.29 32.7921 148.196 32.2348C149.102 31.7123 150.181 31.4336 151.401 31.4336C152.655 31.4336 153.7 31.7123 154.605 32.2348C155.511 32.7573 156.208 33.4888 156.695 34.4642C157.183 35.4047 157.427 36.5194 157.427 37.8083V38.8881H146.977V36.6936H155.79L154.153 38.7488V37.4251C154.153 36.6936 154.048 36.0666 153.804 35.5789C153.56 35.0912 153.247 34.708 152.864 34.4642C152.446 34.2203 151.993 34.081 151.435 34.081C150.913 34.081 150.425 34.2203 150.007 34.4642C149.589 34.708 149.276 35.0912 149.032 35.6137C148.788 36.1014 148.684 36.7284 148.684 37.4599V38.8185C148.684 39.5151 148.788 40.1073 149.032 40.595C149.276 41.0827 149.589 41.4659 150.042 41.7445C150.46 42.0232 150.983 42.1277 151.575 42.1277C152.063 42.1277 152.446 42.058 152.794 41.9187C153.142 41.7794 153.421 41.5704 153.63 41.3614C153.839 41.1175 154.013 40.9085 154.083 40.6647L154.118 40.595H157.288L157.253 40.7343C157.148 41.1872 156.974 41.6749 156.695 42.1277C156.417 42.6154 156.034 43.0334 155.581 43.4166C155.128 43.7998 154.536 44.1133 153.874 44.3571C153.212 44.6009 152.411 44.7054 151.505 44.7054C150.286 44.6009 149.171 44.3571 148.231 43.7998Z" fill="white"/>
<path d="M161.154 43.7301C160.492 43.1379 160.144 42.1625 160.144 40.804V34.29H158.367V31.6774H160.144V28.5771H163.627V31.6774H165.926V34.29H163.627V40.4208C163.627 41.013 163.766 41.431 164.01 41.64C164.289 41.8838 164.672 41.9883 165.195 41.9883C165.369 41.9883 165.473 41.9883 165.613 41.9535C165.717 41.9535 165.857 41.9187 165.926 41.9187V44.4616C165.752 44.4964 165.508 44.5312 165.23 44.5661C164.951 44.6009 164.637 44.6009 164.254 44.6009C162.861 44.6009 161.851 44.3222 161.154 43.7301Z" fill="white"/>
<path d="M80.6525 57.3158H32.5117V9.1748H80.6525V57.3158ZM36.0996 53.7278H77.0646V12.7627H36.0996V53.7278Z" fill="white"/>
<path d="M52.1233 43.311C50.7996 42.7536 49.7546 42.0221 49.0231 41.0468C48.2916 40.0714 47.8387 38.9567 47.6994 37.6678L47.6646 37.4937H53.0638L53.0987 37.6678C53.2728 38.469 53.6909 39.096 54.283 39.5141C54.91 39.9669 55.7809 40.1759 56.8608 40.1759C57.5574 40.1759 58.1845 40.1062 58.6721 39.9321C59.1598 39.7579 59.543 39.5141 59.8217 39.2006C60.1003 38.887 60.2397 38.5039 60.2397 38.051V38.0162C60.2397 37.4588 60.0307 37.0408 59.6475 36.6925C59.2643 36.3441 58.5676 36.1003 57.5574 35.8913L54.1089 35.1598C52.1233 34.7418 50.6603 34.0451 49.6501 33.0697C48.6399 32.0944 48.1522 30.8403 48.1522 29.3076V29.2728C48.1522 27.9839 48.5006 26.8344 49.1973 25.8939C49.8939 24.9533 50.9041 24.2218 52.193 23.6645C53.4818 23.142 54.9797 22.8633 56.7214 22.8633C58.5328 22.8633 60.0655 23.142 61.3195 23.7341C62.5736 24.3263 63.5489 25.0927 64.2108 26.068C64.8726 27.0434 65.2558 28.1233 65.2906 29.3076V29.4818H60.17L60.1352 29.3425C60.0307 28.6109 59.7172 28.0188 59.125 27.5311C58.5328 27.0434 57.7316 26.7996 56.6866 26.7996C56.0596 26.7996 55.5022 26.9041 55.0494 27.0782C54.5965 27.2524 54.2134 27.4962 53.9695 27.8097C53.7257 28.1233 53.5864 28.5064 53.5864 28.9593V28.9941C53.5864 29.5166 53.7954 29.9346 54.1785 30.3178C54.5965 30.6662 55.2932 30.9448 56.3382 31.1887L59.7868 31.9202C61.9117 32.373 63.4792 33.0349 64.3849 33.9057C65.3255 34.7766 65.7783 35.9958 65.7783 37.4937V37.5285C65.7783 38.8522 65.3951 40.0017 64.6288 41.0119C63.8624 41.9873 62.8174 42.7536 61.4937 43.311C60.17 43.8683 58.6025 44.147 56.8608 44.147C55.0494 44.1122 53.447 43.8335 52.1233 43.311Z" fill="white"/>
</svg>
